<?xml version="1.0" standalone="no"?>
<!DOCTYPE svg PUBLIC "-//W3C//DTD SVG 20010904//EN"
 "http://www.w3.org/TR/2001/REC-SVG-20010904/DTD/svg10.dtd">
<svg version="1.0" xmlns="http://www.w3.org/2000/svg"
 width="612.000000pt" height="612.000000pt" viewBox="0 0 612.000000 612.000000"
 preserveAspectRatio="xMidYMid meet">
<metadata>
Created by potrace 1.16, written by Peter Selinger 2001-2019
</metadata>
<g transform="translate(0.000000,612.000000) scale(0.100000,-0.100000)"
fill="#000000" stroke="none">
<path d="M1710 5431 c-58 -27 -186 -86 -285 -131 -99 -45 -185 -87 -192 -92
-7 -5 -17 -25 -23 -43 -20 -61 27 -125 92 -125 12 0 135 52 273 116 l253 116
118 -122 c66 -67 121 -126 122 -131 2 -5 -4 -9 -14 -9 -40 0 -84 -44 -113
-115 -53 -126 -182 -468 -188 -495 -3 -17 3 -46 15 -73 l20 -45 -77 -6 c-42
-3 -121 -8 -176 -11 l-100 -6 -104 248 c-113 269 -135 303 -195 303 -44 0 -84
-32 -92 -75 -5 -30 12 -79 122 -336 91 -212 136 -306 152 -317 20 -13 526
-128 585 -132 56 -5 79 2 113 33 29 26 39 46 53 104 l16 71 205 -79 c133 -51
219 -79 245 -79 49 0 101 30 117 67 7 16 13 30 14 32 2 2 99 -43 216 -99 117
-57 283 -137 368 -178 319 -153 428 -206 535 -257 l110 -52 -3 106 c-4 94 -1
115 23 186 44 134 131 248 233 306 23 13 42 27 42 30 0 4 -692 215 -1302 396
-44 13 -47 16 -38 39 23 60 0 135 -52 168 -13 8 -108 47 -213 86 -104 40 -193
76 -198 79 -4 4 9 39 29 77 31 60 35 76 28 110 -4 24 -19 51 -38 69 -17 17
-142 95 -278 173 -183 106 -255 142 -280 142 -18 0 -79 -22 -138 -49z"/>
<path d="M4396 4169 c-83 -20 -169 -72 -247 -149 -115 -114 -163 -233 -161
-395 4 -284 225 -514 512 -532 163 -10 297 42 416 161 145 145 194 324 144
522 -26 100 -69 173 -146 250 -70 68 -153 116 -239 139 -65 16 -216 19 -279 4z
m252 -315 c229 -111 139 -466 -119 -464 -123 2 -222 89 -243 216 -19 113 65
238 182 270 59 17 113 10 180 -22z"/>
<path d="M3809 3087 c-96 -122 -271 -342 -387 -488 l-212 -266 -128 -6 c-97
-4 -148 -11 -217 -32 -334 -99 -586 -372 -656 -710 -10 -49 -19 -111 -19 -136
l0 -46 -134 -5 c-127 -4 -138 -6 -201 -37 -48 -24 -75 -46 -100 -79 -61 -83
-65 -107 -65 -389 l0 -253 1435 0 1435 0 0 260 c0 219 -3 266 -17 302 -32 83
-106 154 -187 180 -17 6 -89 13 -161 17 l-130 6 -6 76 c-10 122 -53 268 -101
347 l-20 33 21 48 c11 27 84 178 161 336 77 158 140 289 140 290 0 2 59 123
130 270 72 147 130 268 130 269 0 0 -38 2 -84 2 -155 2 -285 61 -394 177 -29
32 -54 57 -55 56 -1 0 -81 -100 -178 -222z m-537 -1317 c103 -39 194 -133 233
-242 l23 -63 58 -8 c33 -4 145 -18 249 -31 l190 -24 -245 -1 -246 -1 -11 -63
c-37 -219 -241 -370 -455 -336 -118 18 -214 81 -279 182 -34 52 -43 79 -65
195 l-4 22 -248 1 -247 1 253 31 252 31 11 41 c36 134 165 256 303 285 59 13
167 3 228 -20z"/>
</g>
</svg>
