<svg xmlns="http://www.w3.org/2000/svg" viewBox="0 0 600 100">
  <!-- Vertical lines representing years, log-scaled for subjective time -->
  <line x1="40.0" y1="25" x2="40.0" y2="65" stroke="#222" stroke-width="1.5"/>
  <line x1="78.7" y1="25" x2="78.7" y2="65" stroke="#222" stroke-width="1.5"/>
  <line x1="110.4" y1="25" x2="110.4" y2="65" stroke="#222" stroke-width="1.5"/>
  <line x1="137.1" y1="25" x2="137.1" y2="65" stroke="#222" stroke-width="1.5"/>
  <line x1="160.3" y1="25" x2="160.3" y2="65" stroke="#222" stroke-width="1.5"/>
  <line x1="180.8" y1="25" x2="180.8" y2="65" stroke="#222" stroke-width="1.5"/>
  <line x1="199.0" y1="25" x2="199.0" y2="65" stroke="#222" stroke-width="1.5"/>
  <line x1="215.6" y1="25" x2="215.6" y2="65" stroke="#222" stroke-width="1.5"/>
  <line x1="230.7" y1="25" x2="230.7" y2="65" stroke="#222" stroke-width="1.5"/>
  <line x1="244.6" y1="25" x2="244.6" y2="65" stroke="#222" stroke-width="1.5"/>
  <line x1="257.5" y1="25" x2="257.5" y2="65" stroke="#222" stroke-width="1.5"/>
  <line x1="269.4" y1="25" x2="269.4" y2="65" stroke="#222" stroke-width="1.5"/>
  <line x1="280.6" y1="25" x2="280.6" y2="65" stroke="#222" stroke-width="1.5"/>
  <line x1="291.2" y1="25" x2="291.2" y2="65" stroke="#222" stroke-width="1.5"/>
  <line x1="301.1" y1="25" x2="301.1" y2="65" stroke="#222" stroke-width="1.5"/>
  <line x1="310.5" y1="25" x2="310.5" y2="65" stroke="#222" stroke-width="1.5"/>
  <line x1="319.4" y1="25" x2="319.4" y2="65" stroke="#222" stroke-width="1.5"/>
  <line x1="327.8" y1="25" x2="327.8" y2="65" stroke="#222" stroke-width="1.5"/>
  <line x1="335.9" y1="25" x2="335.9" y2="65" stroke="#222" stroke-width="1.5"/>
  <line x1="343.6" y1="25" x2="343.6" y2="65" stroke="#222" stroke-width="1.5"/>
  <line x1="351.0" y1="25" x2="351.0" y2="65" stroke="#222" stroke-width="1.5"/>
  <line x1="358.1" y1="25" x2="358.1" y2="65" stroke="#222" stroke-width="1.5"/>
  <line x1="364.9" y1="25" x2="364.9" y2="65" stroke="#222" stroke-width="1.5"/>
  <line x1="371.5" y1="25" x2="371.5" y2="65" stroke="#222" stroke-width="1.5"/>
  <line x1="377.8" y1="25" x2="377.8" y2="65" stroke="#222" stroke-width="1.5"/>
  <line x1="383.9" y1="25" x2="383.9" y2="65" stroke="#222" stroke-width="1.5"/>
  <line x1="389.7" y1="25" x2="389.7" y2="65" stroke="#222" stroke-width="1.5"/>
  <line x1="395.4" y1="25" x2="395.4" y2="65" stroke="#222" stroke-width="1.5"/>
  <line x1="401.0" y1="25" x2="401.0" y2="65" stroke="#222" stroke-width="1.5"/>
  <line x1="406.3" y1="25" x2="406.3" y2="65" stroke="#222" stroke-width="1.5"/>
  <line x1="411.5" y1="25" x2="411.5" y2="65" stroke="#222" stroke-width="1.5"/>
  <line x1="416.5" y1="25" x2="416.5" y2="65" stroke="#222" stroke-width="1.5"/>
  <line x1="421.4" y1="25" x2="421.4" y2="65" stroke="#222" stroke-width="1.5"/>
  <line x1="426.2" y1="25" x2="426.2" y2="65" stroke="#222" stroke-width="1.5"/>
  <line x1="430.8" y1="25" x2="430.8" y2="65" stroke="#222" stroke-width="1.5"/>
  <line x1="435.3" y1="25" x2="435.3" y2="65" stroke="#222" stroke-width="1.5"/>
  <line x1="439.7" y1="25" x2="439.7" y2="65" stroke="#222" stroke-width="1.5"/>
  <line x1="444.0" y1="25" x2="444.0" y2="65" stroke="#222" stroke-width="1.5"/>
  <line x1="448.2" y1="25" x2="448.2" y2="65" stroke="#222" stroke-width="1.5"/>
  <line x1="452.2" y1="25" x2="452.2" y2="65" stroke="#222" stroke-width="1.5"/>
  <line x1="456.2" y1="25" x2="456.2" y2="65" stroke="#222" stroke-width="1.5"/>
  <line x1="460.1" y1="25" x2="460.1" y2="65" stroke="#222" stroke-width="1.5"/>
  <line x1="463.9" y1="25" x2="463.9" y2="65" stroke="#222" stroke-width="1.5"/>
  <line x1="467.7" y1="25" x2="467.7" y2="65" stroke="#222" stroke-width="1.5"/>
  <line x1="471.3" y1="25" x2="471.3" y2="65" stroke="#222" stroke-width="1.5"/>
  <line x1="474.9" y1="25" x2="474.9" y2="65" stroke="#222" stroke-width="1.5"/>
  <line x1="478.4" y1="25" x2="478.4" y2="65" stroke="#222" stroke-width="1.5"/>
  <line x1="481.9" y1="25" x2="481.9" y2="65" stroke="#222" stroke-width="1.5"/>
  <line x1="485.2" y1="25" x2="485.2" y2="65" stroke="#222" stroke-width="1.5"/>
  <line x1="488.5" y1="25" x2="488.5" y2="65" stroke="#222" stroke-width="1.5"/>
  <line x1="491.8" y1="25" x2="491.8" y2="65" stroke="#222" stroke-width="1.5"/>
  <line x1="495.0" y1="25" x2="495.0" y2="65" stroke="#222" stroke-width="1.5"/>
  <line x1="498.1" y1="25" x2="498.1" y2="65" stroke="#222" stroke-width="1.5"/>
  <line x1="501.2" y1="25" x2="501.2" y2="65" stroke="#222" stroke-width="1.5"/>
  <line x1="504.2" y1="25" x2="504.2" y2="65" stroke="#222" stroke-width="1.5"/>
  <line x1="507.1" y1="25" x2="507.1" y2="65" stroke="#222" stroke-width="1.5"/>
  <line x1="510.1" y1="25" x2="510.1" y2="65" stroke="#222" stroke-width="1.5"/>
  <line x1="512.9" y1="25" x2="512.9" y2="65" stroke="#222" stroke-width="1.5"/>
  <line x1="515.8" y1="25" x2="515.8" y2="65" stroke="#222" stroke-width="1.5"/>
  <line x1="518.5" y1="25" x2="518.5" y2="65" stroke="#222" stroke-width="1.5"/>
  <line x1="521.3" y1="25" x2="521.3" y2="65" stroke="#222" stroke-width="1.5"/>
  <line x1="524.0" y1="25" x2="524.0" y2="65" stroke="#222" stroke-width="1.5"/>
  <line x1="526.6" y1="25" x2="526.6" y2="65" stroke="#222" stroke-width="1.5"/>
  <line x1="529.2" y1="25" x2="529.2" y2="65" stroke="#222" stroke-width="1.5"/>
  <line x1="531.8" y1="25" x2="531.8" y2="65" stroke="#222" stroke-width="1.5"/>
  <line x1="534.3" y1="25" x2="534.3" y2="65" stroke="#222" stroke-width="1.5"/>
  <line x1="536.8" y1="25" x2="536.8" y2="65" stroke="#222" stroke-width="1.5"/>
  <line x1="539.3" y1="25" x2="539.3" y2="65" stroke="#222" stroke-width="1.5"/>
  <line x1="541.7" y1="25" x2="541.7" y2="65" stroke="#222" stroke-width="1.5"/>
  <line x1="544.1" y1="25" x2="544.1" y2="65" stroke="#222" stroke-width="1.5"/>
  <line x1="546.5" y1="25" x2="546.5" y2="65" stroke="#222" stroke-width="1.5"/>
  <line x1="548.8" y1="25" x2="548.8" y2="65" stroke="#222" stroke-width="1.5"/>
  <line x1="551.1" y1="25" x2="551.1" y2="65" stroke="#222" stroke-width="1.5"/>
  <line x1="553.4" y1="25" x2="553.4" y2="65" stroke="#222" stroke-width="1.5"/>
  <line x1="555.6" y1="25" x2="555.6" y2="65" stroke="#222" stroke-width="1.5"/>
  <line x1="557.8" y1="25" x2="557.8" y2="65" stroke="#222" stroke-width="1.5"/>
  <line x1="560.0" y1="25" x2="560.0" y2="65" stroke="#222" stroke-width="1.5"/>

  <!-- Age labels -->
  <text x="40.0" y="88" font-family="system-ui, sans-serif" font-size="14" fill="#444" text-anchor="middle">4</text>
  <text x="301.1" y="88" font-family="system-ui, sans-serif" font-size="14" fill="#222" text-anchor="middle" font-weight="600">18</text>
  <text x="560.0" y="88" font-family="system-ui, sans-serif" font-size="14" fill="#444" text-anchor="middle">80</text>
</svg>