<?xml version="1.0" encoding="utf-8" standalone="no"?>
<!DOCTYPE svg PUBLIC "-//W3C//DTD SVG 1.1//EN"
  "http://www.w3.org/Graphics/SVG/1.1/DTD/svg11.dtd">
<svg xmlns:xlink="http://www.w3.org/1999/xlink" width="488.617591pt" height="415.267937pt" viewBox="0 0 488.617591 415.267937" xmlns="http://www.w3.org/2000/svg" version="1.1">
 <metadata>
  <rdf:RDF xmlns:dc="http://purl.org/dc/elements/1.1/" xmlns:cc="http://creativecommons.org/ns#" xmlns:rdf="http://www.w3.org/1999/02/22-rdf-syntax-ns#">
   <cc:Work>
    <dc:type rdf:resource="http://purl.org/dc/dcmitype/StillImage"/>
    <dc:date>2025-12-16T20:27:32.564702</dc:date>
    <dc:format>image/svg+xml</dc:format>
    <dc:creator>
     <cc:Agent>
      <dc:title>Matplotlib v3.10.8, https://matplotlib.org/</dc:title>
     </cc:Agent>
    </dc:creator>
   </cc:Work>
  </rdf:RDF>
 </metadata>
 <defs>
  <style type="text/css">*{stroke-linejoin: round; stroke-linecap: butt}</style>
 </defs>
 <g id="figure_1">
  <g id="patch_1">
   <path d="M 0 415.267937 
L 488.617591 415.267937 
L 488.617591 0 
L 0 0 
z
" style="fill: #ffffff"/>
  </g>
  <g id="axes_1">
   <g id="patch_2">
    <path d="M 63.31 367.052 
L 471.737591 367.052 
L 471.737591 7.2 
L 63.31 7.2 
z
" style="fill: #ffffff"/>
   </g>
   <g id="FillBetweenPolyCollection_1">
    <defs>
     <path id="m631db62977" d="M 376.7925 19.667474 
L 376.7925 -153.169949 
L 377.610992 -152.557774 
L 378.429484 -151.945599 
L 379.247976 -151.333424 
L 380.066468 -150.721249 
L 380.884961 -150.109074 
L 381.703453 -149.496899 
L 382.521945 -148.884724 
L 383.340437 -148.272549 
L 384.158929 -147.660374 
L 384.977421 -147.048199 
L 385.795914 -146.436024 
L 386.614406 -145.823849 
L 387.432898 -145.211674 
L 388.25139 -144.599499 
L 389.069882 -143.987324 
L 389.888374 -143.375148 
L 390.706867 -142.762973 
L 391.525359 -142.150798 
L 392.343851 -141.538623 
L 393.162343 -140.926448 
L 393.980835 -140.314273 
L 394.799327 -139.702098 
L 395.61782 -139.089923 
L 396.436312 -138.477748 
L 397.254804 -137.865573 
L 398.073296 -137.253398 
L 398.891788 -136.641223 
L 399.71028 -136.029048 
L 400.528773 -135.416873 
L 401.347265 -134.804698 
L 402.165757 -134.192523 
L 402.984249 -133.580348 
L 403.802741 -132.968173 
L 404.621233 -132.355998 
L 405.439726 -131.743822 
L 406.258218 -131.131647 
L 407.07671 -130.519472 
L 407.895202 -129.907297 
L 408.713694 -129.295122 
L 409.532186 -128.682947 
L 410.350679 -128.070772 
L 411.169171 -127.458597 
L 411.987663 -126.846422 
L 412.806155 -126.234247 
L 413.624647 -125.622072 
L 414.443139 -125.009897 
L 415.261632 -124.397722 
L 416.080124 -123.785547 
L 416.898616 -123.173372 
L 417.717108 -122.561197 
L 418.5356 -121.949022 
L 419.354092 -121.336847 
L 420.172585 -120.724672 
L 420.991077 -120.112496 
L 421.809569 -119.500321 
L 422.628061 -118.888146 
L 423.446553 -118.275971 
L 424.265045 -117.663796 
L 425.083538 -117.051621 
L 425.90203 -116.439446 
L 426.720522 -115.827271 
L 427.539014 -115.215096 
L 428.357506 -114.602921 
L 429.175998 -113.990746 
L 429.994491 -113.378571 
L 430.812983 -112.766396 
L 431.631475 -112.154221 
L 432.449967 -111.542046 
L 433.268459 -110.929871 
L 434.086951 -110.317696 
L 434.905444 -109.705521 
L 435.723936 -109.093346 
L 436.542428 -108.48117 
L 437.36092 -107.868995 
L 438.179412 -107.25682 
L 438.997904 -106.644645 
L 439.816397 -106.03247 
L 440.634889 -105.420295 
L 441.453381 -104.80812 
L 442.271873 -104.195945 
L 443.090365 -103.58377 
L 443.908857 -102.971595 
L 444.72735 -102.35942 
L 445.545842 -101.747245 
L 446.364334 -101.13507 
L 447.182826 -100.522895 
L 448.001318 -99.91072 
L 448.81981 -99.298545 
L 449.638303 -98.68637 
L 450.456795 -98.074195 
L 451.275287 -97.46202 
L 452.093779 -96.849844 
L 452.912271 -96.237669 
L 453.730763 -95.625494 
L 454.549256 -95.013319 
L 455.367748 -94.401144 
L 456.18624 -93.788969 
L 457.004732 -93.176794 
L 457.823224 -92.564619 
L 458.641716 -91.952444 
L 459.460209 -91.340269 
L 460.278701 -90.728094 
L 461.097193 -90.115919 
L 461.915685 -89.503744 
L 462.734177 -88.891569 
L 463.552669 -88.279394 
L 464.371162 -87.667219 
L 465.189654 -87.055044 
L 466.008146 -86.442869 
L 466.826638 -85.830694 
L 467.64513 -85.218518 
L 468.463622 -84.606343 
L 469.282115 -83.994168 
L 470.100607 -83.381993 
L 470.919099 -82.769818 
L 471.737591 -82.157643 
L 471.737591 19.667474 
L 471.737591 19.667474 
L 470.919099 19.667474 
L 470.100607 19.667474 
L 469.282115 19.667474 
L 468.463622 19.667474 
L 467.64513 19.667474 
L 466.826638 19.667474 
L 466.008146 19.667474 
L 465.189654 19.667474 
L 464.371162 19.667474 
L 463.552669 19.667474 
L 462.734177 19.667474 
L 461.915685 19.667474 
L 461.097193 19.667474 
L 460.278701 19.667474 
L 459.460209 19.667474 
L 458.641716 19.667474 
L 457.823224 19.667474 
L 457.004732 19.667474 
L 456.18624 19.667474 
L 455.367748 19.667474 
L 454.549256 19.667474 
L 453.730763 19.667474 
L 452.912271 19.667474 
L 452.093779 19.667474 
L 451.275287 19.667474 
L 450.456795 19.667474 
L 449.638303 19.667474 
L 448.81981 19.667474 
L 448.001318 19.667474 
L 447.182826 19.667474 
L 446.364334 19.667474 
L 445.545842 19.667474 
L 444.72735 19.667474 
L 443.908857 19.667474 
L 443.090365 19.667474 
L 442.271873 19.667474 
L 441.453381 19.667474 
L 440.634889 19.667474 
L 439.816397 19.667474 
L 438.997904 19.667474 
L 438.179412 19.667474 
L 437.36092 19.667474 
L 436.542428 19.667474 
L 435.723936 19.667474 
L 434.905444 19.667474 
L 434.086951 19.667474 
L 433.268459 19.667474 
L 432.449967 19.667474 
L 431.631475 19.667474 
L 430.812983 19.667474 
L 429.994491 19.667474 
L 429.175998 19.667474 
L 428.357506 19.667474 
L 427.539014 19.667474 
L 426.720522 19.667474 
L 425.90203 19.667474 
L 425.083538 19.667474 
L 424.265045 19.667474 
L 423.446553 19.667474 
L 422.628061 19.667474 
L 421.809569 19.667474 
L 420.991077 19.667474 
L 420.172585 19.667474 
L 419.354092 19.667474 
L 418.5356 19.667474 
L 417.717108 19.667474 
L 416.898616 19.667474 
L 416.080124 19.667474 
L 415.261632 19.667474 
L 414.443139 19.667474 
L 413.624647 19.667474 
L 412.806155 19.667474 
L 411.987663 19.667474 
L 411.169171 19.667474 
L 410.350679 19.667474 
L 409.532186 19.667474 
L 408.713694 19.667474 
L 407.895202 19.667474 
L 407.07671 19.667474 
L 406.258218 19.667474 
L 405.439726 19.667474 
L 404.621233 19.667474 
L 403.802741 19.667474 
L 402.984249 19.667474 
L 402.165757 19.667474 
L 401.347265 19.667474 
L 400.528773 19.667474 
L 399.71028 19.667474 
L 398.891788 19.667474 
L 398.073296 19.667474 
L 397.254804 19.667474 
L 396.436312 19.667474 
L 395.61782 19.667474 
L 394.799327 19.667474 
L 393.980835 19.667474 
L 393.162343 19.667474 
L 392.343851 19.667474 
L 391.525359 19.667474 
L 390.706867 19.667474 
L 389.888374 19.667474 
L 389.069882 19.667474 
L 388.25139 19.667474 
L 387.432898 19.667474 
L 386.614406 19.667474 
L 385.795914 19.667474 
L 384.977421 19.667474 
L 384.158929 19.667474 
L 383.340437 19.667474 
L 382.521945 19.667474 
L 381.703453 19.667474 
L 380.884961 19.667474 
L 380.066468 19.667474 
L 379.247976 19.667474 
L 378.429484 19.667474 
L 377.610992 19.667474 
L 376.7925 19.667474 
z
" style="stroke: #000000; stroke-opacity: 0.12"/>
    </defs>
    <g clip-path="url(#pb7217f5335)">
     <use xlink:href="#m631db62977" x="0" y="415.267937" style="fill-opacity: 0.12; stroke: #000000; stroke-opacity: 0.12"/>
    </g>
   </g>
   <g id="matplotlib.axis_1">
    <g id="xtick_1">
     <g id="line2d_1">
      <path d="M 63.31 367.052 
L 63.31 7.2 
" clip-path="url(#pb7217f5335)" style="fill: none; stroke: #cccccc; stroke-opacity: 0.8; stroke-width: 0.6; stroke-linecap: square"/>
     </g>
     <g id="line2d_2">
      <defs>
       <path id="m2b034c50ba" d="M 0 0 
L 0 6 
" style="stroke: #000000; stroke-width: 1.2"/>
      </defs>
      <g>
       <use xlink:href="#m2b034c50ba" x="63.31" y="367.052" style="stroke: #000000; stroke-width: 1.2"/>
      </g>
     </g>
     <g id="text_1">
      <!-- $\mathdefault{10^{0}}$ -->
      <g transform="translate(53.63 384.910281) scale(0.11 -0.11)">
       <defs>
        <path id="DejaVuSerif-31" d="M 909 0 
L 909 331 
L 1722 331 
L 1722 4213 
L 781 3603 
L 781 4013 
L 1919 4750 
L 2350 4750 
L 2350 331 
L 3163 331 
L 3163 0 
L 909 0 
z
" transform="scale(0.015625)"/>
        <path id="DejaVuSerif-30" d="M 2034 219 
Q 2513 219 2750 744 
Q 2988 1269 2988 2328 
Q 2988 3391 2750 3916 
Q 2513 4441 2034 4441 
Q 1556 4441 1318 3916 
Q 1081 3391 1081 2328 
Q 1081 1269 1318 744 
Q 1556 219 2034 219 
z
M 2034 -91 
Q 1275 -91 848 546 
Q 422 1184 422 2328 
Q 422 3475 848 4112 
Q 1275 4750 2034 4750 
Q 2797 4750 3222 4112 
Q 3647 3475 3647 2328 
Q 3647 1184 3222 546 
Q 2797 -91 2034 -91 
z
" transform="scale(0.015625)"/>
       </defs>
       <use xlink:href="#DejaVuSerif-31" transform="translate(0 0.7125)"/>
       <use xlink:href="#DejaVuSerif-30" transform="translate(63.623047 0.7125)"/>
       <use xlink:href="#DejaVuSerif-30" transform="translate(128.154453 37.046875) scale(0.7)"/>
      </g>
     </g>
    </g>
    <g id="xtick_2">
     <g id="line2d_3">
      <path d="M 199.45253 367.052 
L 199.45253 7.2 
" clip-path="url(#pb7217f5335)" style="fill: none; stroke: #cccccc; stroke-opacity: 0.8; stroke-width: 0.6; stroke-linecap: square"/>
     </g>
     <g id="line2d_4">
      <g>
       <use xlink:href="#m2b034c50ba" x="199.45253" y="367.052" style="stroke: #000000; stroke-width: 1.2"/>
      </g>
     </g>
     <g id="text_2">
      <!-- $\mathdefault{10^{1}}$ -->
      <g transform="translate(189.77253 384.910281) scale(0.11 -0.11)">
       <use xlink:href="#DejaVuSerif-31" transform="translate(0 0.7125)"/>
       <use xlink:href="#DejaVuSerif-30" transform="translate(63.623047 0.7125)"/>
       <use xlink:href="#DejaVuSerif-31" transform="translate(128.154453 37.046875) scale(0.7)"/>
      </g>
     </g>
    </g>
    <g id="xtick_3">
     <g id="line2d_5">
      <path d="M 335.595061 367.052 
L 335.595061 7.2 
" clip-path="url(#pb7217f5335)" style="fill: none; stroke: #cccccc; stroke-opacity: 0.8; stroke-width: 0.6; stroke-linecap: square"/>
     </g>
     <g id="line2d_6">
      <g>
       <use xlink:href="#m2b034c50ba" x="335.595061" y="367.052" style="stroke: #000000; stroke-width: 1.2"/>
      </g>
     </g>
     <g id="text_3">
      <!-- $\mathdefault{10^{2}}$ -->
      <g transform="translate(325.915061 384.910281) scale(0.11 -0.11)">
       <defs>
        <path id="DejaVuSerif-32" d="M 819 3553 
L 469 3553 
L 469 4384 
Q 803 4563 1142 4656 
Q 1481 4750 1806 4750 
Q 2534 4750 2956 4397 
Q 3378 4044 3378 3438 
Q 3378 2753 2422 1800 
Q 2347 1728 2309 1691 
L 1131 513 
L 3078 513 
L 3078 1088 
L 3444 1088 
L 3444 0 
L 434 0 
L 434 341 
L 1850 1753 
Q 2319 2222 2519 2614 
Q 2719 3006 2719 3438 
Q 2719 3909 2473 4175 
Q 2228 4441 1797 4441 
Q 1350 4441 1106 4219 
Q 863 3997 819 3553 
z
" transform="scale(0.015625)"/>
       </defs>
       <use xlink:href="#DejaVuSerif-31" transform="translate(0 0.7125)"/>
       <use xlink:href="#DejaVuSerif-30" transform="translate(63.623047 0.7125)"/>
       <use xlink:href="#DejaVuSerif-32" transform="translate(128.154453 37.046875) scale(0.7)"/>
      </g>
     </g>
    </g>
    <g id="xtick_4">
     <g id="line2d_7">
      <path d="M 471.737591 367.052 
L 471.737591 7.2 
" clip-path="url(#pb7217f5335)" style="fill: none; stroke: #cccccc; stroke-opacity: 0.8; stroke-width: 0.6; stroke-linecap: square"/>
     </g>
     <g id="line2d_8">
      <g>
       <use xlink:href="#m2b034c50ba" x="471.737591" y="367.052" style="stroke: #000000; stroke-width: 1.2"/>
      </g>
     </g>
     <g id="text_4">
      <!-- $\mathdefault{10^{3}}$ -->
      <g transform="translate(462.057591 384.910281) scale(0.11 -0.11)">
       <defs>
        <path id="DejaVuSerif-33" d="M 622 4469 
Q 988 4606 1323 4678 
Q 1659 4750 1953 4750 
Q 2638 4750 3022 4454 
Q 3406 4159 3406 3634 
Q 3406 3213 3140 2930 
Q 2875 2647 2388 2547 
Q 2963 2466 3280 2130 
Q 3597 1794 3597 1259 
Q 3597 606 3158 257 
Q 2719 -91 1894 -91 
Q 1528 -91 1179 -12 
Q 831 66 488 225 
L 488 1131 
L 838 1131 
Q 869 681 1141 450 
Q 1413 219 1906 219 
Q 2384 219 2661 495 
Q 2938 772 2938 1253 
Q 2938 1803 2653 2086 
Q 2369 2369 1819 2369 
L 1522 2369 
L 1522 2688 
L 1678 2688 
Q 2225 2688 2498 2914 
Q 2772 3141 2772 3597 
Q 2772 4006 2547 4223 
Q 2322 4441 1900 4441 
Q 1478 4441 1245 4241 
Q 1013 4041 972 3647 
L 622 3647 
L 622 4469 
z
" transform="scale(0.015625)"/>
       </defs>
       <use xlink:href="#DejaVuSerif-31" transform="translate(0 0.7125)"/>
       <use xlink:href="#DejaVuSerif-30" transform="translate(63.623047 0.7125)"/>
       <use xlink:href="#DejaVuSerif-33" transform="translate(128.154453 37.046875) scale(0.7)"/>
      </g>
     </g>
    </g>
    <g id="xtick_5">
     <g id="line2d_9">
      <path d="M 104.292985 367.052 
L 104.292985 7.2 
" clip-path="url(#pb7217f5335)" style="fill: none; stroke: #e5e5e5; stroke-opacity: 0.6; stroke-width: 0.3; stroke-linecap: square"/>
     </g>
     <g id="line2d_10">
      <defs>
       <path id="m90db98d8eb" d="M 0 0 
L 0 3 
" style="stroke: #000000; stroke-width: 0.6"/>
      </defs>
      <g>
       <use xlink:href="#m90db98d8eb" x="104.292985" y="367.052" style="stroke: #000000; stroke-width: 0.6"/>
      </g>
     </g>
    </g>
    <g id="xtick_6">
     <g id="line2d_11">
      <path d="M 128.266495 367.052 
L 128.266495 7.2 
" clip-path="url(#pb7217f5335)" style="fill: none; stroke: #e5e5e5; stroke-opacity: 0.6; stroke-width: 0.3; stroke-linecap: square"/>
     </g>
     <g id="line2d_12">
      <g>
       <use xlink:href="#m90db98d8eb" x="128.266495" y="367.052" style="stroke: #000000; stroke-width: 0.6"/>
      </g>
     </g>
    </g>
    <g id="xtick_7">
     <g id="line2d_13">
      <path d="M 145.275971 367.052 
L 145.275971 7.2 
" clip-path="url(#pb7217f5335)" style="fill: none; stroke: #e5e5e5; stroke-opacity: 0.6; stroke-width: 0.3; stroke-linecap: square"/>
     </g>
     <g id="line2d_14">
      <g>
       <use xlink:href="#m90db98d8eb" x="145.275971" y="367.052" style="stroke: #000000; stroke-width: 0.6"/>
      </g>
     </g>
    </g>
    <g id="xtick_8">
     <g id="line2d_15">
      <path d="M 158.469545 367.052 
L 158.469545 7.2 
" clip-path="url(#pb7217f5335)" style="fill: none; stroke: #e5e5e5; stroke-opacity: 0.6; stroke-width: 0.3; stroke-linecap: square"/>
     </g>
     <g id="line2d_16">
      <g>
       <use xlink:href="#m90db98d8eb" x="158.469545" y="367.052" style="stroke: #000000; stroke-width: 0.6"/>
      </g>
     </g>
    </g>
    <g id="xtick_9">
     <g id="line2d_17">
      <path d="M 169.24948 367.052 
L 169.24948 7.2 
" clip-path="url(#pb7217f5335)" style="fill: none; stroke: #e5e5e5; stroke-opacity: 0.6; stroke-width: 0.3; stroke-linecap: square"/>
     </g>
     <g id="line2d_18">
      <g>
       <use xlink:href="#m90db98d8eb" x="169.24948" y="367.052" style="stroke: #000000; stroke-width: 0.6"/>
      </g>
     </g>
    </g>
    <g id="xtick_10">
     <g id="line2d_19">
      <path d="M 178.363786 367.052 
L 178.363786 7.2 
" clip-path="url(#pb7217f5335)" style="fill: none; stroke: #e5e5e5; stroke-opacity: 0.6; stroke-width: 0.3; stroke-linecap: square"/>
     </g>
     <g id="line2d_20">
      <g>
       <use xlink:href="#m90db98d8eb" x="178.363786" y="367.052" style="stroke: #000000; stroke-width: 0.6"/>
      </g>
     </g>
    </g>
    <g id="xtick_11">
     <g id="line2d_21">
      <path d="M 186.258956 367.052 
L 186.258956 7.2 
" clip-path="url(#pb7217f5335)" style="fill: none; stroke: #e5e5e5; stroke-opacity: 0.6; stroke-width: 0.3; stroke-linecap: square"/>
     </g>
     <g id="line2d_22">
      <g>
       <use xlink:href="#m90db98d8eb" x="186.258956" y="367.052" style="stroke: #000000; stroke-width: 0.6"/>
      </g>
     </g>
    </g>
    <g id="xtick_12">
     <g id="line2d_23">
      <path d="M 193.22299 367.052 
L 193.22299 7.2 
" clip-path="url(#pb7217f5335)" style="fill: none; stroke: #e5e5e5; stroke-opacity: 0.6; stroke-width: 0.3; stroke-linecap: square"/>
     </g>
     <g id="line2d_24">
      <g>
       <use xlink:href="#m90db98d8eb" x="193.22299" y="367.052" style="stroke: #000000; stroke-width: 0.6"/>
      </g>
     </g>
    </g>
    <g id="xtick_13">
     <g id="line2d_25">
      <path d="M 240.435516 367.052 
L 240.435516 7.2 
" clip-path="url(#pb7217f5335)" style="fill: none; stroke: #e5e5e5; stroke-opacity: 0.6; stroke-width: 0.3; stroke-linecap: square"/>
     </g>
     <g id="line2d_26">
      <g>
       <use xlink:href="#m90db98d8eb" x="240.435516" y="367.052" style="stroke: #000000; stroke-width: 0.6"/>
      </g>
     </g>
    </g>
    <g id="xtick_14">
     <g id="line2d_27">
      <path d="M 264.409025 367.052 
L 264.409025 7.2 
" clip-path="url(#pb7217f5335)" style="fill: none; stroke: #e5e5e5; stroke-opacity: 0.6; stroke-width: 0.3; stroke-linecap: square"/>
     </g>
     <g id="line2d_28">
      <g>
       <use xlink:href="#m90db98d8eb" x="264.409025" y="367.052" style="stroke: #000000; stroke-width: 0.6"/>
      </g>
     </g>
    </g>
    <g id="xtick_15">
     <g id="line2d_29">
      <path d="M 281.418501 367.052 
L 281.418501 7.2 
" clip-path="url(#pb7217f5335)" style="fill: none; stroke: #e5e5e5; stroke-opacity: 0.6; stroke-width: 0.3; stroke-linecap: square"/>
     </g>
     <g id="line2d_30">
      <g>
       <use xlink:href="#m90db98d8eb" x="281.418501" y="367.052" style="stroke: #000000; stroke-width: 0.6"/>
      </g>
     </g>
    </g>
    <g id="xtick_16">
     <g id="line2d_31">
      <path d="M 294.612075 367.052 
L 294.612075 7.2 
" clip-path="url(#pb7217f5335)" style="fill: none; stroke: #e5e5e5; stroke-opacity: 0.6; stroke-width: 0.3; stroke-linecap: square"/>
     </g>
     <g id="line2d_32">
      <g>
       <use xlink:href="#m90db98d8eb" x="294.612075" y="367.052" style="stroke: #000000; stroke-width: 0.6"/>
      </g>
     </g>
    </g>
    <g id="xtick_17">
     <g id="line2d_33">
      <path d="M 305.392011 367.052 
L 305.392011 7.2 
" clip-path="url(#pb7217f5335)" style="fill: none; stroke: #e5e5e5; stroke-opacity: 0.6; stroke-width: 0.3; stroke-linecap: square"/>
     </g>
     <g id="line2d_34">
      <g>
       <use xlink:href="#m90db98d8eb" x="305.392011" y="367.052" style="stroke: #000000; stroke-width: 0.6"/>
      </g>
     </g>
    </g>
    <g id="xtick_18">
     <g id="line2d_35">
      <path d="M 314.506316 367.052 
L 314.506316 7.2 
" clip-path="url(#pb7217f5335)" style="fill: none; stroke: #e5e5e5; stroke-opacity: 0.6; stroke-width: 0.3; stroke-linecap: square"/>
     </g>
     <g id="line2d_36">
      <g>
       <use xlink:href="#m90db98d8eb" x="314.506316" y="367.052" style="stroke: #000000; stroke-width: 0.6"/>
      </g>
     </g>
    </g>
    <g id="xtick_19">
     <g id="line2d_37">
      <path d="M 322.401486 367.052 
L 322.401486 7.2 
" clip-path="url(#pb7217f5335)" style="fill: none; stroke: #e5e5e5; stroke-opacity: 0.6; stroke-width: 0.3; stroke-linecap: square"/>
     </g>
     <g id="line2d_38">
      <g>
       <use xlink:href="#m90db98d8eb" x="322.401486" y="367.052" style="stroke: #000000; stroke-width: 0.6"/>
      </g>
     </g>
    </g>
    <g id="xtick_20">
     <g id="line2d_39">
      <path d="M 329.36552 367.052 
L 329.36552 7.2 
" clip-path="url(#pb7217f5335)" style="fill: none; stroke: #e5e5e5; stroke-opacity: 0.6; stroke-width: 0.3; stroke-linecap: square"/>
     </g>
     <g id="line2d_40">
      <g>
       <use xlink:href="#m90db98d8eb" x="329.36552" y="367.052" style="stroke: #000000; stroke-width: 0.6"/>
      </g>
     </g>
    </g>
    <g id="xtick_21">
     <g id="line2d_41">
      <path d="M 376.578046 367.052 
L 376.578046 7.2 
" clip-path="url(#pb7217f5335)" style="fill: none; stroke: #e5e5e5; stroke-opacity: 0.6; stroke-width: 0.3; stroke-linecap: square"/>
     </g>
     <g id="line2d_42">
      <g>
       <use xlink:href="#m90db98d8eb" x="376.578046" y="367.052" style="stroke: #000000; stroke-width: 0.6"/>
      </g>
     </g>
    </g>
    <g id="xtick_22">
     <g id="line2d_43">
      <path d="M 400.551556 367.052 
L 400.551556 7.2 
" clip-path="url(#pb7217f5335)" style="fill: none; stroke: #e5e5e5; stroke-opacity: 0.6; stroke-width: 0.3; stroke-linecap: square"/>
     </g>
     <g id="line2d_44">
      <g>
       <use xlink:href="#m90db98d8eb" x="400.551556" y="367.052" style="stroke: #000000; stroke-width: 0.6"/>
      </g>
     </g>
    </g>
    <g id="xtick_23">
     <g id="line2d_45">
      <path d="M 417.561031 367.052 
L 417.561031 7.2 
" clip-path="url(#pb7217f5335)" style="fill: none; stroke: #e5e5e5; stroke-opacity: 0.6; stroke-width: 0.3; stroke-linecap: square"/>
     </g>
     <g id="line2d_46">
      <g>
       <use xlink:href="#m90db98d8eb" x="417.561031" y="367.052" style="stroke: #000000; stroke-width: 0.6"/>
      </g>
     </g>
    </g>
    <g id="xtick_24">
     <g id="line2d_47">
      <path d="M 430.754606 367.052 
L 430.754606 7.2 
" clip-path="url(#pb7217f5335)" style="fill: none; stroke: #e5e5e5; stroke-opacity: 0.6; stroke-width: 0.3; stroke-linecap: square"/>
     </g>
     <g id="line2d_48">
      <g>
       <use xlink:href="#m90db98d8eb" x="430.754606" y="367.052" style="stroke: #000000; stroke-width: 0.6"/>
      </g>
     </g>
    </g>
    <g id="xtick_25">
     <g id="line2d_49">
      <path d="M 441.534541 367.052 
L 441.534541 7.2 
" clip-path="url(#pb7217f5335)" style="fill: none; stroke: #e5e5e5; stroke-opacity: 0.6; stroke-width: 0.3; stroke-linecap: square"/>
     </g>
     <g id="line2d_50">
      <g>
       <use xlink:href="#m90db98d8eb" x="441.534541" y="367.052" style="stroke: #000000; stroke-width: 0.6"/>
      </g>
     </g>
    </g>
    <g id="xtick_26">
     <g id="line2d_51">
      <path d="M 450.648846 367.052 
L 450.648846 7.2 
" clip-path="url(#pb7217f5335)" style="fill: none; stroke: #e5e5e5; stroke-opacity: 0.6; stroke-width: 0.3; stroke-linecap: square"/>
     </g>
     <g id="line2d_52">
      <g>
       <use xlink:href="#m90db98d8eb" x="450.648846" y="367.052" style="stroke: #000000; stroke-width: 0.6"/>
      </g>
     </g>
    </g>
    <g id="xtick_27">
     <g id="line2d_53">
      <path d="M 458.544017 367.052 
L 458.544017 7.2 
" clip-path="url(#pb7217f5335)" style="fill: none; stroke: #e5e5e5; stroke-opacity: 0.6; stroke-width: 0.3; stroke-linecap: square"/>
     </g>
     <g id="line2d_54">
      <g>
       <use xlink:href="#m90db98d8eb" x="458.544017" y="367.052" style="stroke: #000000; stroke-width: 0.6"/>
      </g>
     </g>
    </g>
    <g id="xtick_28">
     <g id="line2d_55">
      <path d="M 465.50805 367.052 
L 465.50805 7.2 
" clip-path="url(#pb7217f5335)" style="fill: none; stroke: #e5e5e5; stroke-opacity: 0.6; stroke-width: 0.3; stroke-linecap: square"/>
     </g>
     <g id="line2d_56">
      <g>
       <use xlink:href="#m90db98d8eb" x="465.50805" y="367.052" style="stroke: #000000; stroke-width: 0.6"/>
      </g>
     </g>
    </g>
    <g id="text_5">
     <!-- Node degree $k$ -->
     <g transform="translate(219.033796 405.077937) scale(0.13 -0.13)">
      <defs>
       <path id="DejaVuSerif-4e" d="M 313 0 
L 313 331 
L 941 331 
L 941 4331 
L 313 4331 
L 313 4666 
L 1509 4666 
L 4306 984 
L 4306 4331 
L 3681 4331 
L 3681 4666 
L 5319 4666 
L 5319 4331 
L 4691 4331 
L 4691 -91 
L 4313 -91 
L 1325 3841 
L 1325 331 
L 1953 331 
L 1953 0 
L 313 0 
z
" transform="scale(0.015625)"/>
       <path id="DejaVuSerif-6f" d="M 1925 219 
Q 2388 219 2623 584 
Q 2859 950 2859 1663 
Q 2859 2375 2623 2739 
Q 2388 3103 1925 3103 
Q 1463 3103 1227 2739 
Q 991 2375 991 1663 
Q 991 950 1228 584 
Q 1466 219 1925 219 
z
M 1925 -91 
Q 1200 -91 759 389 
Q 319 869 319 1663 
Q 319 2456 758 2934 
Q 1197 3413 1925 3413 
Q 2653 3413 3092 2934 
Q 3531 2456 3531 1663 
Q 3531 869 3092 389 
Q 2653 -91 1925 -91 
z
" transform="scale(0.015625)"/>
       <path id="DejaVuSerif-64" d="M 3359 331 
L 3909 331 
L 3909 0 
L 2784 0 
L 2784 519 
Q 2616 206 2355 57 
Q 2094 -91 1709 -91 
Q 1097 -91 708 395 
Q 319 881 319 1663 
Q 319 2444 706 2928 
Q 1094 3413 1709 3413 
Q 2094 3413 2355 3264 
Q 2616 3116 2784 2803 
L 2784 4531 
L 2241 4531 
L 2241 4863 
L 3359 4863 
L 3359 331 
z
M 2784 1497 
L 2784 1825 
Q 2784 2422 2554 2737 
Q 2325 3053 1888 3053 
Q 1444 3053 1217 2703 
Q 991 2353 991 1663 
Q 991 975 1217 622 
Q 1444 269 1888 269 
Q 2325 269 2554 583 
Q 2784 897 2784 1497 
z
" transform="scale(0.015625)"/>
       <path id="DejaVuSerif-65" d="M 3469 1600 
L 991 1600 
L 991 1575 
Q 991 903 1244 561 
Q 1497 219 1991 219 
Q 2369 219 2611 417 
Q 2853 616 2950 1006 
L 3413 1006 
Q 3275 459 2904 184 
Q 2534 -91 1931 -91 
Q 1203 -91 761 389 
Q 319 869 319 1663 
Q 319 2450 753 2931 
Q 1188 3413 1894 3413 
Q 2647 3413 3050 2948 
Q 3453 2484 3469 1600 
z
M 2791 1931 
Q 2772 2513 2545 2808 
Q 2319 3103 1894 3103 
Q 1497 3103 1269 2806 
Q 1041 2509 991 1931 
L 2791 1931 
z
" transform="scale(0.015625)"/>
       <path id="DejaVuSerif-20" transform="scale(0.015625)"/>
       <path id="DejaVuSerif-67" d="M 3359 2988 
L 3359 72 
Q 3359 -644 2965 -1033 
Q 2572 -1422 1844 -1422 
Q 1516 -1422 1216 -1362 
Q 916 -1303 641 -1184 
L 641 -488 
L 941 -488 
Q 997 -813 1206 -963 
Q 1416 -1113 1806 -1113 
Q 2313 -1113 2548 -827 
Q 2784 -541 2784 72 
L 2784 519 
Q 2616 206 2355 57 
Q 2094 -91 1709 -91 
Q 1097 -91 708 395 
Q 319 881 319 1663 
Q 319 2444 706 2928 
Q 1094 3413 1709 3413 
Q 2094 3413 2355 3264 
Q 2616 3116 2784 2803 
L 2784 3322 
L 3909 3322 
L 3909 2988 
L 3359 2988 
z
M 2784 1825 
Q 2784 2422 2554 2737 
Q 2325 3053 1888 3053 
Q 1444 3053 1217 2703 
Q 991 2353 991 1663 
Q 991 975 1217 622 
Q 1444 269 1888 269 
Q 2325 269 2554 583 
Q 2784 897 2784 1497 
L 2784 1825 
z
" transform="scale(0.015625)"/>
       <path id="DejaVuSerif-72" d="M 3059 3328 
L 3059 2497 
L 2728 2497 
Q 2713 2744 2591 2866 
Q 2469 2988 2234 2988 
Q 1809 2988 1582 2694 
Q 1356 2400 1356 1850 
L 1356 331 
L 2022 331 
L 2022 0 
L 263 0 
L 263 331 
L 781 331 
L 781 2994 
L 231 2994 
L 231 3322 
L 1356 3322 
L 1356 2731 
Q 1525 3078 1790 3245 
Q 2056 3413 2438 3413 
Q 2578 3413 2733 3391 
Q 2888 3369 3059 3328 
z
" transform="scale(0.015625)"/>
       <path id="DejaVuSans-Oblique-6b" d="M 1172 4863 
L 1747 4863 
L 1197 2028 
L 3169 3500 
L 3916 3500 
L 1716 1825 
L 3322 0 
L 2625 0 
L 1131 1709 
L 800 0 
L 225 0 
L 1172 4863 
z
" transform="scale(0.015625)"/>
      </defs>
      <use xlink:href="#DejaVuSerif-4e" transform="translate(0 0.015625)"/>
      <use xlink:href="#DejaVuSerif-6f" transform="translate(87.5 0.015625)"/>
      <use xlink:href="#DejaVuSerif-64" transform="translate(147.705078 0.015625)"/>
      <use xlink:href="#DejaVuSerif-65" transform="translate(211.71875 0.015625)"/>
      <use xlink:href="#DejaVuSerif-20" transform="translate(270.898438 0.015625)"/>
      <use xlink:href="#DejaVuSerif-64" transform="translate(302.685547 0.015625)"/>
      <use xlink:href="#DejaVuSerif-65" transform="translate(366.699219 0.015625)"/>
      <use xlink:href="#DejaVuSerif-67" transform="translate(425.878906 0.015625)"/>
      <use xlink:href="#DejaVuSerif-72" transform="translate(489.892578 0.015625)"/>
      <use xlink:href="#DejaVuSerif-65" transform="translate(537.695312 0.015625)"/>
      <use xlink:href="#DejaVuSerif-65" transform="translate(596.875 0.015625)"/>
      <use xlink:href="#DejaVuSerif-20" transform="translate(656.054688 0.015625)"/>
      <use xlink:href="#DejaVuSans-Oblique-6b" transform="translate(687.841797 0.015625)"/>
     </g>
    </g>
   </g>
   <g id="matplotlib.axis_2">
    <g id="ytick_1">
     <g id="line2d_57">
      <path d="M 63.31 367.052 
L 471.737591 367.052 
" clip-path="url(#pb7217f5335)" style="fill: none; stroke: #cccccc; stroke-opacity: 0.8; stroke-width: 0.6; stroke-linecap: square"/>
     </g>
     <g id="line2d_58">
      <defs>
       <path id="m55d39468b5" d="M 0 0 
L -6 0 
" style="stroke: #000000; stroke-width: 1.2"/>
      </defs>
      <g>
       <use xlink:href="#m55d39468b5" x="63.31" y="367.052" style="stroke: #000000; stroke-width: 1.2"/>
      </g>
     </g>
     <g id="text_6">
      <!-- $\mathdefault{10^{-5}}$ -->
      <g transform="translate(28.07 371.231141) scale(0.11 -0.11)">
       <defs>
        <path id="DejaVuSerif-2212" d="M 678 2259 
L 4684 2259 
L 4684 1753 
L 678 1753 
L 678 2259 
z
" transform="scale(0.015625)"/>
        <path id="DejaVuSerif-35" d="M 3219 4666 
L 3219 4153 
L 1081 4153 
L 1081 2816 
Q 1244 2928 1461 2984 
Q 1678 3041 1947 3041 
Q 2703 3041 3140 2622 
Q 3578 2203 3578 1478 
Q 3578 738 3136 323 
Q 2694 -91 1894 -91 
Q 1572 -91 1234 -12 
Q 897 66 544 225 
L 544 1131 
L 897 1131 
Q 925 688 1179 453 
Q 1434 219 1894 219 
Q 2388 219 2653 544 
Q 2919 869 2919 1478 
Q 2919 2084 2655 2407 
Q 2391 2731 1894 2731 
Q 1613 2731 1398 2631 
Q 1184 2531 1019 2322 
L 750 2322 
L 750 4666 
L 3219 4666 
z
" transform="scale(0.015625)"/>
       </defs>
       <use xlink:href="#DejaVuSerif-31" transform="translate(0 0.63125)"/>
       <use xlink:href="#DejaVuSerif-30" transform="translate(63.623047 0.63125)"/>
       <use xlink:href="#DejaVuSerif-2212" transform="translate(128.154453 36.965625) scale(0.7)"/>
       <use xlink:href="#DejaVuSerif-35" transform="translate(186.806797 36.965625) scale(0.7)"/>
      </g>
     </g>
    </g>
    <g id="ytick_2">
     <g id="line2d_59">
      <path d="M 63.31 299.168589 
L 471.737591 299.168589 
" clip-path="url(#pb7217f5335)" style="fill: none; stroke: #cccccc; stroke-opacity: 0.8; stroke-width: 0.6; stroke-linecap: square"/>
     </g>
     <g id="line2d_60">
      <g>
       <use xlink:href="#m55d39468b5" x="63.31" y="299.168589" style="stroke: #000000; stroke-width: 1.2"/>
      </g>
     </g>
     <g id="text_7">
      <!-- $\mathdefault{10^{-4}}$ -->
      <g transform="translate(28.07 303.347729) scale(0.11 -0.11)">
       <defs>
        <path id="DejaVuSerif-34" d="M 2234 1581 
L 2234 4063 
L 641 1581 
L 2234 1581 
z
M 3609 0 
L 1484 0 
L 1484 331 
L 2234 331 
L 2234 1247 
L 197 1247 
L 197 1588 
L 2241 4750 
L 2859 4750 
L 2859 1581 
L 3750 1581 
L 3750 1247 
L 2859 1247 
L 2859 331 
L 3609 331 
L 3609 0 
z
" transform="scale(0.015625)"/>
       </defs>
       <use xlink:href="#DejaVuSerif-31" transform="translate(0 0.7125)"/>
       <use xlink:href="#DejaVuSerif-30" transform="translate(63.623047 0.7125)"/>
       <use xlink:href="#DejaVuSerif-2212" transform="translate(128.154453 37.046875) scale(0.7)"/>
       <use xlink:href="#DejaVuSerif-34" transform="translate(186.806797 37.046875) scale(0.7)"/>
      </g>
     </g>
    </g>
    <g id="ytick_3">
     <g id="line2d_61">
      <path d="M 63.31 231.285177 
L 471.737591 231.285177 
" clip-path="url(#pb7217f5335)" style="fill: none; stroke: #cccccc; stroke-opacity: 0.8; stroke-width: 0.6; stroke-linecap: square"/>
     </g>
     <g id="line2d_62">
      <g>
       <use xlink:href="#m55d39468b5" x="63.31" y="231.285177" style="stroke: #000000; stroke-width: 1.2"/>
      </g>
     </g>
     <g id="text_8">
      <!-- $\mathdefault{10^{-3}}$ -->
      <g transform="translate(28.07 235.464318) scale(0.11 -0.11)">
       <use xlink:href="#DejaVuSerif-31" transform="translate(0 0.7125)"/>
       <use xlink:href="#DejaVuSerif-30" transform="translate(63.623047 0.7125)"/>
       <use xlink:href="#DejaVuSerif-2212" transform="translate(128.154453 37.046875) scale(0.7)"/>
       <use xlink:href="#DejaVuSerif-33" transform="translate(186.806797 37.046875) scale(0.7)"/>
      </g>
     </g>
    </g>
    <g id="ytick_4">
     <g id="line2d_63">
      <path d="M 63.31 163.401766 
L 471.737591 163.401766 
" clip-path="url(#pb7217f5335)" style="fill: none; stroke: #cccccc; stroke-opacity: 0.8; stroke-width: 0.6; stroke-linecap: square"/>
     </g>
     <g id="line2d_64">
      <g>
       <use xlink:href="#m55d39468b5" x="63.31" y="163.401766" style="stroke: #000000; stroke-width: 1.2"/>
      </g>
     </g>
     <g id="text_9">
      <!-- $\mathdefault{10^{-2}}$ -->
      <g transform="translate(28.07 167.580906) scale(0.11 -0.11)">
       <use xlink:href="#DejaVuSerif-31" transform="translate(0 0.7125)"/>
       <use xlink:href="#DejaVuSerif-30" transform="translate(63.623047 0.7125)"/>
       <use xlink:href="#DejaVuSerif-2212" transform="translate(128.154453 37.046875) scale(0.7)"/>
       <use xlink:href="#DejaVuSerif-32" transform="translate(186.806797 37.046875) scale(0.7)"/>
      </g>
     </g>
    </g>
    <g id="ytick_5">
     <g id="line2d_65">
      <path d="M 63.31 95.518354 
L 471.737591 95.518354 
" clip-path="url(#pb7217f5335)" style="fill: none; stroke: #cccccc; stroke-opacity: 0.8; stroke-width: 0.6; stroke-linecap: square"/>
     </g>
     <g id="line2d_66">
      <g>
       <use xlink:href="#m55d39468b5" x="63.31" y="95.518354" style="stroke: #000000; stroke-width: 1.2"/>
      </g>
     </g>
     <g id="text_10">
      <!-- $\mathdefault{10^{-1}}$ -->
      <g transform="translate(28.07 99.697495) scale(0.11 -0.11)">
       <use xlink:href="#DejaVuSerif-31" transform="translate(0 0.7125)"/>
       <use xlink:href="#DejaVuSerif-30" transform="translate(63.623047 0.7125)"/>
       <use xlink:href="#DejaVuSerif-2212" transform="translate(128.154453 37.046875) scale(0.7)"/>
       <use xlink:href="#DejaVuSerif-31" transform="translate(186.806797 37.046875) scale(0.7)"/>
      </g>
     </g>
    </g>
    <g id="ytick_6">
     <g id="line2d_67">
      <path d="M 63.31 27.634943 
L 471.737591 27.634943 
" clip-path="url(#pb7217f5335)" style="fill: none; stroke: #cccccc; stroke-opacity: 0.8; stroke-width: 0.6; stroke-linecap: square"/>
     </g>
     <g id="line2d_68">
      <g>
       <use xlink:href="#m55d39468b5" x="63.31" y="27.634943" style="stroke: #000000; stroke-width: 1.2"/>
      </g>
     </g>
     <g id="text_11">
      <!-- $\mathdefault{10^{0}}$ -->
      <g transform="translate(34.45 31.814084) scale(0.11 -0.11)">
       <use xlink:href="#DejaVuSerif-31" transform="translate(0 0.7125)"/>
       <use xlink:href="#DejaVuSerif-30" transform="translate(63.623047 0.7125)"/>
       <use xlink:href="#DejaVuSerif-30" transform="translate(128.154453 37.046875) scale(0.7)"/>
      </g>
     </g>
    </g>
    <g id="ytick_7">
     <g id="line2d_69">
      <path d="M 63.31 346.617057 
L 471.737591 346.617057 
" clip-path="url(#pb7217f5335)" style="fill: none; stroke: #e5e5e5; stroke-opacity: 0.6; stroke-width: 0.3; stroke-linecap: square"/>
     </g>
     <g id="line2d_70">
      <defs>
       <path id="ma06dec24db" d="M 0 0 
L -3 0 
" style="stroke: #000000; stroke-width: 0.6"/>
      </defs>
      <g>
       <use xlink:href="#ma06dec24db" x="63.31" y="346.617057" style="stroke: #000000; stroke-width: 0.6"/>
      </g>
     </g>
    </g>
    <g id="ytick_8">
     <g id="line2d_71">
      <path d="M 63.31 334.663382 
L 471.737591 334.663382 
" clip-path="url(#pb7217f5335)" style="fill: none; stroke: #e5e5e5; stroke-opacity: 0.6; stroke-width: 0.3; stroke-linecap: square"/>
     </g>
     <g id="line2d_72">
      <g>
       <use xlink:href="#ma06dec24db" x="63.31" y="334.663382" style="stroke: #000000; stroke-width: 0.6"/>
      </g>
     </g>
    </g>
    <g id="ytick_9">
     <g id="line2d_73">
      <path d="M 63.31 326.182114 
L 471.737591 326.182114 
" clip-path="url(#pb7217f5335)" style="fill: none; stroke: #e5e5e5; stroke-opacity: 0.6; stroke-width: 0.3; stroke-linecap: square"/>
     </g>
     <g id="line2d_74">
      <g>
       <use xlink:href="#ma06dec24db" x="63.31" y="326.182114" style="stroke: #000000; stroke-width: 0.6"/>
      </g>
     </g>
    </g>
    <g id="ytick_10">
     <g id="line2d_75">
      <path d="M 63.31 319.603532 
L 471.737591 319.603532 
" clip-path="url(#pb7217f5335)" style="fill: none; stroke: #e5e5e5; stroke-opacity: 0.6; stroke-width: 0.3; stroke-linecap: square"/>
     </g>
     <g id="line2d_76">
      <g>
       <use xlink:href="#ma06dec24db" x="63.31" y="319.603532" style="stroke: #000000; stroke-width: 0.6"/>
      </g>
     </g>
    </g>
    <g id="ytick_11">
     <g id="line2d_77">
      <path d="M 63.31 314.228439 
L 471.737591 314.228439 
" clip-path="url(#pb7217f5335)" style="fill: none; stroke: #e5e5e5; stroke-opacity: 0.6; stroke-width: 0.3; stroke-linecap: square"/>
     </g>
     <g id="line2d_78">
      <g>
       <use xlink:href="#ma06dec24db" x="63.31" y="314.228439" style="stroke: #000000; stroke-width: 0.6"/>
      </g>
     </g>
    </g>
    <g id="ytick_12">
     <g id="line2d_79">
      <path d="M 63.31 309.683862 
L 471.737591 309.683862 
" clip-path="url(#pb7217f5335)" style="fill: none; stroke: #e5e5e5; stroke-opacity: 0.6; stroke-width: 0.3; stroke-linecap: square"/>
     </g>
     <g id="line2d_80">
      <g>
       <use xlink:href="#ma06dec24db" x="63.31" y="309.683862" style="stroke: #000000; stroke-width: 0.6"/>
      </g>
     </g>
    </g>
    <g id="ytick_13">
     <g id="line2d_81">
      <path d="M 63.31 305.747171 
L 471.737591 305.747171 
" clip-path="url(#pb7217f5335)" style="fill: none; stroke: #e5e5e5; stroke-opacity: 0.6; stroke-width: 0.3; stroke-linecap: square"/>
     </g>
     <g id="line2d_82">
      <g>
       <use xlink:href="#ma06dec24db" x="63.31" y="305.747171" style="stroke: #000000; stroke-width: 0.6"/>
      </g>
     </g>
    </g>
    <g id="ytick_14">
     <g id="line2d_83">
      <path d="M 63.31 302.274763 
L 471.737591 302.274763 
" clip-path="url(#pb7217f5335)" style="fill: none; stroke: #e5e5e5; stroke-opacity: 0.6; stroke-width: 0.3; stroke-linecap: square"/>
     </g>
     <g id="line2d_84">
      <g>
       <use xlink:href="#ma06dec24db" x="63.31" y="302.274763" style="stroke: #000000; stroke-width: 0.6"/>
      </g>
     </g>
    </g>
    <g id="ytick_15">
     <g id="line2d_85">
      <path d="M 63.31 278.733646 
L 471.737591 278.733646 
" clip-path="url(#pb7217f5335)" style="fill: none; stroke: #e5e5e5; stroke-opacity: 0.6; stroke-width: 0.3; stroke-linecap: square"/>
     </g>
     <g id="line2d_86">
      <g>
       <use xlink:href="#ma06dec24db" x="63.31" y="278.733646" style="stroke: #000000; stroke-width: 0.6"/>
      </g>
     </g>
    </g>
    <g id="ytick_16">
     <g id="line2d_87">
      <path d="M 63.31 266.77997 
L 471.737591 266.77997 
" clip-path="url(#pb7217f5335)" style="fill: none; stroke: #e5e5e5; stroke-opacity: 0.6; stroke-width: 0.3; stroke-linecap: square"/>
     </g>
     <g id="line2d_88">
      <g>
       <use xlink:href="#ma06dec24db" x="63.31" y="266.77997" style="stroke: #000000; stroke-width: 0.6"/>
      </g>
     </g>
    </g>
    <g id="ytick_17">
     <g id="line2d_89">
      <path d="M 63.31 258.298703 
L 471.737591 258.298703 
" clip-path="url(#pb7217f5335)" style="fill: none; stroke: #e5e5e5; stroke-opacity: 0.6; stroke-width: 0.3; stroke-linecap: square"/>
     </g>
     <g id="line2d_90">
      <g>
       <use xlink:href="#ma06dec24db" x="63.31" y="258.298703" style="stroke: #000000; stroke-width: 0.6"/>
      </g>
     </g>
    </g>
    <g id="ytick_18">
     <g id="line2d_91">
      <path d="M 63.31 251.72012 
L 471.737591 251.72012 
" clip-path="url(#pb7217f5335)" style="fill: none; stroke: #e5e5e5; stroke-opacity: 0.6; stroke-width: 0.3; stroke-linecap: square"/>
     </g>
     <g id="line2d_92">
      <g>
       <use xlink:href="#ma06dec24db" x="63.31" y="251.72012" style="stroke: #000000; stroke-width: 0.6"/>
      </g>
     </g>
    </g>
    <g id="ytick_19">
     <g id="line2d_93">
      <path d="M 63.31 246.345027 
L 471.737591 246.345027 
" clip-path="url(#pb7217f5335)" style="fill: none; stroke: #e5e5e5; stroke-opacity: 0.6; stroke-width: 0.3; stroke-linecap: square"/>
     </g>
     <g id="line2d_94">
      <g>
       <use xlink:href="#ma06dec24db" x="63.31" y="246.345027" style="stroke: #000000; stroke-width: 0.6"/>
      </g>
     </g>
    </g>
    <g id="ytick_20">
     <g id="line2d_95">
      <path d="M 63.31 241.800451 
L 471.737591 241.800451 
" clip-path="url(#pb7217f5335)" style="fill: none; stroke: #e5e5e5; stroke-opacity: 0.6; stroke-width: 0.3; stroke-linecap: square"/>
     </g>
     <g id="line2d_96">
      <g>
       <use xlink:href="#ma06dec24db" x="63.31" y="241.800451" style="stroke: #000000; stroke-width: 0.6"/>
      </g>
     </g>
    </g>
    <g id="ytick_21">
     <g id="line2d_97">
      <path d="M 63.31 237.863759 
L 471.737591 237.863759 
" clip-path="url(#pb7217f5335)" style="fill: none; stroke: #e5e5e5; stroke-opacity: 0.6; stroke-width: 0.3; stroke-linecap: square"/>
     </g>
     <g id="line2d_98">
      <g>
       <use xlink:href="#ma06dec24db" x="63.31" y="237.863759" style="stroke: #000000; stroke-width: 0.6"/>
      </g>
     </g>
    </g>
    <g id="ytick_22">
     <g id="line2d_99">
      <path d="M 63.31 234.391352 
L 471.737591 234.391352 
" clip-path="url(#pb7217f5335)" style="fill: none; stroke: #e5e5e5; stroke-opacity: 0.6; stroke-width: 0.3; stroke-linecap: square"/>
     </g>
     <g id="line2d_100">
      <g>
       <use xlink:href="#ma06dec24db" x="63.31" y="234.391352" style="stroke: #000000; stroke-width: 0.6"/>
      </g>
     </g>
    </g>
    <g id="ytick_23">
     <g id="line2d_101">
      <path d="M 63.31 210.850234 
L 471.737591 210.850234 
" clip-path="url(#pb7217f5335)" style="fill: none; stroke: #e5e5e5; stroke-opacity: 0.6; stroke-width: 0.3; stroke-linecap: square"/>
     </g>
     <g id="line2d_102">
      <g>
       <use xlink:href="#ma06dec24db" x="63.31" y="210.850234" style="stroke: #000000; stroke-width: 0.6"/>
      </g>
     </g>
    </g>
    <g id="ytick_24">
     <g id="line2d_103">
      <path d="M 63.31 198.896559 
L 471.737591 198.896559 
" clip-path="url(#pb7217f5335)" style="fill: none; stroke: #e5e5e5; stroke-opacity: 0.6; stroke-width: 0.3; stroke-linecap: square"/>
     </g>
     <g id="line2d_104">
      <g>
       <use xlink:href="#ma06dec24db" x="63.31" y="198.896559" style="stroke: #000000; stroke-width: 0.6"/>
      </g>
     </g>
    </g>
    <g id="ytick_25">
     <g id="line2d_105">
      <path d="M 63.31 190.415291 
L 471.737591 190.415291 
" clip-path="url(#pb7217f5335)" style="fill: none; stroke: #e5e5e5; stroke-opacity: 0.6; stroke-width: 0.3; stroke-linecap: square"/>
     </g>
     <g id="line2d_106">
      <g>
       <use xlink:href="#ma06dec24db" x="63.31" y="190.415291" style="stroke: #000000; stroke-width: 0.6"/>
      </g>
     </g>
    </g>
    <g id="ytick_26">
     <g id="line2d_107">
      <path d="M 63.31 183.836709 
L 471.737591 183.836709 
" clip-path="url(#pb7217f5335)" style="fill: none; stroke: #e5e5e5; stroke-opacity: 0.6; stroke-width: 0.3; stroke-linecap: square"/>
     </g>
     <g id="line2d_108">
      <g>
       <use xlink:href="#ma06dec24db" x="63.31" y="183.836709" style="stroke: #000000; stroke-width: 0.6"/>
      </g>
     </g>
    </g>
    <g id="ytick_27">
     <g id="line2d_109">
      <path d="M 63.31 178.461616 
L 471.737591 178.461616 
" clip-path="url(#pb7217f5335)" style="fill: none; stroke: #e5e5e5; stroke-opacity: 0.6; stroke-width: 0.3; stroke-linecap: square"/>
     </g>
     <g id="line2d_110">
      <g>
       <use xlink:href="#ma06dec24db" x="63.31" y="178.461616" style="stroke: #000000; stroke-width: 0.6"/>
      </g>
     </g>
    </g>
    <g id="ytick_28">
     <g id="line2d_111">
      <path d="M 63.31 173.917039 
L 471.737591 173.917039 
" clip-path="url(#pb7217f5335)" style="fill: none; stroke: #e5e5e5; stroke-opacity: 0.6; stroke-width: 0.3; stroke-linecap: square"/>
     </g>
     <g id="line2d_112">
      <g>
       <use xlink:href="#ma06dec24db" x="63.31" y="173.917039" style="stroke: #000000; stroke-width: 0.6"/>
      </g>
     </g>
    </g>
    <g id="ytick_29">
     <g id="line2d_113">
      <path d="M 63.31 169.980348 
L 471.737591 169.980348 
" clip-path="url(#pb7217f5335)" style="fill: none; stroke: #e5e5e5; stroke-opacity: 0.6; stroke-width: 0.3; stroke-linecap: square"/>
     </g>
     <g id="line2d_114">
      <g>
       <use xlink:href="#ma06dec24db" x="63.31" y="169.980348" style="stroke: #000000; stroke-width: 0.6"/>
      </g>
     </g>
    </g>
    <g id="ytick_30">
     <g id="line2d_115">
      <path d="M 63.31 166.50794 
L 471.737591 166.50794 
" clip-path="url(#pb7217f5335)" style="fill: none; stroke: #e5e5e5; stroke-opacity: 0.6; stroke-width: 0.3; stroke-linecap: square"/>
     </g>
     <g id="line2d_116">
      <g>
       <use xlink:href="#ma06dec24db" x="63.31" y="166.50794" style="stroke: #000000; stroke-width: 0.6"/>
      </g>
     </g>
    </g>
    <g id="ytick_31">
     <g id="line2d_117">
      <path d="M 63.31 142.966823 
L 471.737591 142.966823 
" clip-path="url(#pb7217f5335)" style="fill: none; stroke: #e5e5e5; stroke-opacity: 0.6; stroke-width: 0.3; stroke-linecap: square"/>
     </g>
     <g id="line2d_118">
      <g>
       <use xlink:href="#ma06dec24db" x="63.31" y="142.966823" style="stroke: #000000; stroke-width: 0.6"/>
      </g>
     </g>
    </g>
    <g id="ytick_32">
     <g id="line2d_119">
      <path d="M 63.31 131.013147 
L 471.737591 131.013147 
" clip-path="url(#pb7217f5335)" style="fill: none; stroke: #e5e5e5; stroke-opacity: 0.6; stroke-width: 0.3; stroke-linecap: square"/>
     </g>
     <g id="line2d_120">
      <g>
       <use xlink:href="#ma06dec24db" x="63.31" y="131.013147" style="stroke: #000000; stroke-width: 0.6"/>
      </g>
     </g>
    </g>
    <g id="ytick_33">
     <g id="line2d_121">
      <path d="M 63.31 122.53188 
L 471.737591 122.53188 
" clip-path="url(#pb7217f5335)" style="fill: none; stroke: #e5e5e5; stroke-opacity: 0.6; stroke-width: 0.3; stroke-linecap: square"/>
     </g>
     <g id="line2d_122">
      <g>
       <use xlink:href="#ma06dec24db" x="63.31" y="122.53188" style="stroke: #000000; stroke-width: 0.6"/>
      </g>
     </g>
    </g>
    <g id="ytick_34">
     <g id="line2d_123">
      <path d="M 63.31 115.953297 
L 471.737591 115.953297 
" clip-path="url(#pb7217f5335)" style="fill: none; stroke: #e5e5e5; stroke-opacity: 0.6; stroke-width: 0.3; stroke-linecap: square"/>
     </g>
     <g id="line2d_124">
      <g>
       <use xlink:href="#ma06dec24db" x="63.31" y="115.953297" style="stroke: #000000; stroke-width: 0.6"/>
      </g>
     </g>
    </g>
    <g id="ytick_35">
     <g id="line2d_125">
      <path d="M 63.31 110.578204 
L 471.737591 110.578204 
" clip-path="url(#pb7217f5335)" style="fill: none; stroke: #e5e5e5; stroke-opacity: 0.6; stroke-width: 0.3; stroke-linecap: square"/>
     </g>
     <g id="line2d_126">
      <g>
       <use xlink:href="#ma06dec24db" x="63.31" y="110.578204" style="stroke: #000000; stroke-width: 0.6"/>
      </g>
     </g>
    </g>
    <g id="ytick_36">
     <g id="line2d_127">
      <path d="M 63.31 106.033628 
L 471.737591 106.033628 
" clip-path="url(#pb7217f5335)" style="fill: none; stroke: #e5e5e5; stroke-opacity: 0.6; stroke-width: 0.3; stroke-linecap: square"/>
     </g>
     <g id="line2d_128">
      <g>
       <use xlink:href="#ma06dec24db" x="63.31" y="106.033628" style="stroke: #000000; stroke-width: 0.6"/>
      </g>
     </g>
    </g>
    <g id="ytick_37">
     <g id="line2d_129">
      <path d="M 63.31 102.096937 
L 471.737591 102.096937 
" clip-path="url(#pb7217f5335)" style="fill: none; stroke: #e5e5e5; stroke-opacity: 0.6; stroke-width: 0.3; stroke-linecap: square"/>
     </g>
     <g id="line2d_130">
      <g>
       <use xlink:href="#ma06dec24db" x="63.31" y="102.096937" style="stroke: #000000; stroke-width: 0.6"/>
      </g>
     </g>
    </g>
    <g id="ytick_38">
     <g id="line2d_131">
      <path d="M 63.31 98.624529 
L 471.737591 98.624529 
" clip-path="url(#pb7217f5335)" style="fill: none; stroke: #e5e5e5; stroke-opacity: 0.6; stroke-width: 0.3; stroke-linecap: square"/>
     </g>
     <g id="line2d_132">
      <g>
       <use xlink:href="#ma06dec24db" x="63.31" y="98.624529" style="stroke: #000000; stroke-width: 0.6"/>
      </g>
     </g>
    </g>
    <g id="ytick_39">
     <g id="line2d_133">
      <path d="M 63.31 75.083411 
L 471.737591 75.083411 
" clip-path="url(#pb7217f5335)" style="fill: none; stroke: #e5e5e5; stroke-opacity: 0.6; stroke-width: 0.3; stroke-linecap: square"/>
     </g>
     <g id="line2d_134">
      <g>
       <use xlink:href="#ma06dec24db" x="63.31" y="75.083411" style="stroke: #000000; stroke-width: 0.6"/>
      </g>
     </g>
    </g>
    <g id="ytick_40">
     <g id="line2d_135">
      <path d="M 63.31 63.129736 
L 471.737591 63.129736 
" clip-path="url(#pb7217f5335)" style="fill: none; stroke: #e5e5e5; stroke-opacity: 0.6; stroke-width: 0.3; stroke-linecap: square"/>
     </g>
     <g id="line2d_136">
      <g>
       <use xlink:href="#ma06dec24db" x="63.31" y="63.129736" style="stroke: #000000; stroke-width: 0.6"/>
      </g>
     </g>
    </g>
    <g id="ytick_41">
     <g id="line2d_137">
      <path d="M 63.31 54.648468 
L 471.737591 54.648468 
" clip-path="url(#pb7217f5335)" style="fill: none; stroke: #e5e5e5; stroke-opacity: 0.6; stroke-width: 0.3; stroke-linecap: square"/>
     </g>
     <g id="line2d_138">
      <g>
       <use xlink:href="#ma06dec24db" x="63.31" y="54.648468" style="stroke: #000000; stroke-width: 0.6"/>
      </g>
     </g>
    </g>
    <g id="ytick_42">
     <g id="line2d_139">
      <path d="M 63.31 48.069886 
L 471.737591 48.069886 
" clip-path="url(#pb7217f5335)" style="fill: none; stroke: #e5e5e5; stroke-opacity: 0.6; stroke-width: 0.3; stroke-linecap: square"/>
     </g>
     <g id="line2d_140">
      <g>
       <use xlink:href="#ma06dec24db" x="63.31" y="48.069886" style="stroke: #000000; stroke-width: 0.6"/>
      </g>
     </g>
    </g>
    <g id="ytick_43">
     <g id="line2d_141">
      <path d="M 63.31 42.694793 
L 471.737591 42.694793 
" clip-path="url(#pb7217f5335)" style="fill: none; stroke: #e5e5e5; stroke-opacity: 0.6; stroke-width: 0.3; stroke-linecap: square"/>
     </g>
     <g id="line2d_142">
      <g>
       <use xlink:href="#ma06dec24db" x="63.31" y="42.694793" style="stroke: #000000; stroke-width: 0.6"/>
      </g>
     </g>
    </g>
    <g id="ytick_44">
     <g id="line2d_143">
      <path d="M 63.31 38.150217 
L 471.737591 38.150217 
" clip-path="url(#pb7217f5335)" style="fill: none; stroke: #e5e5e5; stroke-opacity: 0.6; stroke-width: 0.3; stroke-linecap: square"/>
     </g>
     <g id="line2d_144">
      <g>
       <use xlink:href="#ma06dec24db" x="63.31" y="38.150217" style="stroke: #000000; stroke-width: 0.6"/>
      </g>
     </g>
    </g>
    <g id="ytick_45">
     <g id="line2d_145">
      <path d="M 63.31 34.213525 
L 471.737591 34.213525 
" clip-path="url(#pb7217f5335)" style="fill: none; stroke: #e5e5e5; stroke-opacity: 0.6; stroke-width: 0.3; stroke-linecap: square"/>
     </g>
     <g id="line2d_146">
      <g>
       <use xlink:href="#ma06dec24db" x="63.31" y="34.213525" style="stroke: #000000; stroke-width: 0.6"/>
      </g>
     </g>
    </g>
    <g id="ytick_46">
     <g id="line2d_147">
      <path d="M 63.31 30.741118 
L 471.737591 30.741118 
" clip-path="url(#pb7217f5335)" style="fill: none; stroke: #e5e5e5; stroke-opacity: 0.6; stroke-width: 0.3; stroke-linecap: square"/>
     </g>
     <g id="line2d_148">
      <g>
       <use xlink:href="#ma06dec24db" x="63.31" y="30.741118" style="stroke: #000000; stroke-width: 0.6"/>
      </g>
     </g>
    </g>
    <g id="ytick_47">
     <g id="line2d_149">
      <path d="M 63.31 7.2 
L 471.737591 7.2 
" clip-path="url(#pb7217f5335)" style="fill: none; stroke: #e5e5e5; stroke-opacity: 0.6; stroke-width: 0.3; stroke-linecap: square"/>
     </g>
     <g id="line2d_150">
      <g>
       <use xlink:href="#ma06dec24db" x="63.31" y="7.2" style="stroke: #000000; stroke-width: 0.6"/>
      </g>
     </g>
    </g>
    <g id="text_12">
     <!-- Probability $P(k)$ -->
     <g transform="translate(17.08 238.086) rotate(-90) scale(0.13 -0.13)">
      <defs>
       <path id="DejaVuSerif-50" d="M 1581 2375 
L 2406 2375 
Q 2872 2375 3115 2626 
Q 3359 2878 3359 3353 
Q 3359 3831 3115 4081 
Q 2872 4331 2406 4331 
L 1581 4331 
L 1581 2375 
z
M 353 0 
L 353 331 
L 947 331 
L 947 4331 
L 353 4331 
L 353 4666 
L 2559 4666 
Q 3259 4666 3668 4311 
Q 4078 3956 4078 3353 
Q 4078 2753 3668 2397 
Q 3259 2041 2559 2041 
L 1581 2041 
L 1581 331 
L 2303 331 
L 2303 0 
L 353 0 
z
" transform="scale(0.015625)"/>
       <path id="DejaVuSerif-62" d="M 738 331 
L 738 4531 
L 184 4531 
L 184 4863 
L 1313 4863 
L 1313 2803 
Q 1481 3116 1742 3264 
Q 2003 3413 2388 3413 
Q 3000 3413 3387 2928 
Q 3775 2444 3775 1663 
Q 3775 881 3387 395 
Q 3000 -91 2388 -91 
Q 2003 -91 1742 57 
Q 1481 206 1313 519 
L 1313 0 
L 184 0 
L 184 331 
L 738 331 
z
M 1313 1497 
Q 1313 897 1542 583 
Q 1772 269 2209 269 
Q 2650 269 2876 622 
Q 3103 975 3103 1663 
Q 3103 2353 2876 2703 
Q 2650 3053 2209 3053 
Q 1772 3053 1542 2737 
Q 1313 2422 1313 1825 
L 1313 1497 
z
" transform="scale(0.015625)"/>
       <path id="DejaVuSerif-61" d="M 2547 1044 
L 2547 1747 
L 1806 1747 
Q 1378 1747 1168 1562 
Q 959 1378 959 997 
Q 959 650 1171 447 
Q 1384 244 1747 244 
Q 2106 244 2326 466 
Q 2547 688 2547 1044 
z
M 3122 2075 
L 3122 331 
L 3634 331 
L 3634 0 
L 2547 0 
L 2547 359 
Q 2356 128 2106 18 
Q 1856 -91 1522 -91 
Q 969 -91 644 203 
Q 319 497 319 997 
Q 319 1513 691 1797 
Q 1063 2081 1741 2081 
L 2547 2081 
L 2547 2309 
Q 2547 2688 2317 2895 
Q 2088 3103 1672 3103 
Q 1328 3103 1125 2947 
Q 922 2791 872 2484 
L 575 2484 
L 575 3156 
Q 875 3284 1158 3348 
Q 1441 3413 1709 3413 
Q 2400 3413 2761 3070 
Q 3122 2728 3122 2075 
z
" transform="scale(0.015625)"/>
       <path id="DejaVuSerif-69" d="M 622 4353 
Q 622 4497 726 4603 
Q 831 4709 978 4709 
Q 1122 4709 1226 4603 
Q 1331 4497 1331 4353 
Q 1331 4206 1228 4103 
Q 1125 4000 978 4000 
Q 831 4000 726 4103 
Q 622 4206 622 4353 
z
M 1356 331 
L 1900 331 
L 1900 0 
L 231 0 
L 231 331 
L 781 331 
L 781 2988 
L 231 2988 
L 231 3322 
L 1356 3322 
L 1356 331 
z
" transform="scale(0.015625)"/>
       <path id="DejaVuSerif-6c" d="M 1313 331 
L 1856 331 
L 1856 0 
L 184 0 
L 184 331 
L 738 331 
L 738 4531 
L 184 4531 
L 184 4863 
L 1313 4863 
L 1313 331 
z
" transform="scale(0.015625)"/>
       <path id="DejaVuSerif-74" d="M 691 2988 
L 184 2988 
L 184 3322 
L 691 3322 
L 691 4353 
L 1269 4353 
L 1269 3322 
L 2350 3322 
L 2350 2988 
L 1269 2988 
L 1269 878 
Q 1269 456 1350 337 
Q 1431 219 1650 219 
Q 1875 219 1978 351 
Q 2081 484 2088 781 
L 2522 781 
Q 2497 328 2275 118 
Q 2053 -91 1600 -91 
Q 1103 -91 897 129 
Q 691 350 691 878 
L 691 2988 
z
" transform="scale(0.015625)"/>
       <path id="DejaVuSerif-79" d="M 1381 -609 
L 1600 -56 
L 359 2988 
L -19 2988 
L -19 3322 
L 1509 3322 
L 1509 2988 
L 978 2988 
L 1913 703 
L 2847 2988 
L 2350 2988 
L 2350 3322 
L 3597 3322 
L 3597 2988 
L 3225 2988 
L 1703 -750 
Q 1547 -1138 1356 -1280 
Q 1166 -1422 819 -1422 
Q 672 -1422 517 -1397 
Q 363 -1372 206 -1325 
L 206 -691 
L 500 -691 
Q 519 -903 608 -995 
Q 697 -1088 884 -1088 
Q 1056 -1088 1161 -992 
Q 1266 -897 1381 -609 
z
" transform="scale(0.015625)"/>
       <path id="DejaVuSans-Oblique-50" d="M 1081 4666 
L 2541 4666 
Q 3178 4666 3512 4369 
Q 3847 4072 3847 3500 
Q 3847 2731 3353 2303 
Q 2859 1875 1966 1875 
L 1172 1875 
L 806 0 
L 172 0 
L 1081 4666 
z
M 1613 4147 
L 1275 2394 
L 2069 2394 
Q 2606 2394 2893 2669 
Q 3181 2944 3181 3456 
Q 3181 3784 2986 3965 
Q 2791 4147 2438 4147 
L 1613 4147 
z
" transform="scale(0.015625)"/>
       <path id="DejaVuSans-28" d="M 1984 4856 
Q 1566 4138 1362 3434 
Q 1159 2731 1159 2009 
Q 1159 1288 1364 580 
Q 1569 -128 1984 -844 
L 1484 -844 
Q 1016 -109 783 600 
Q 550 1309 550 2009 
Q 550 2706 781 3412 
Q 1013 4119 1484 4856 
L 1984 4856 
z
" transform="scale(0.015625)"/>
       <path id="DejaVuSans-29" d="M 513 4856 
L 1013 4856 
Q 1481 4119 1714 3412 
Q 1947 2706 1947 2009 
Q 1947 1309 1714 600 
Q 1481 -109 1013 -844 
L 513 -844 
Q 928 -128 1133 580 
Q 1338 1288 1338 2009 
Q 1338 2731 1133 3434 
Q 928 4138 513 4856 
z
" transform="scale(0.015625)"/>
      </defs>
      <use xlink:href="#DejaVuSerif-50" transform="translate(0 0.015625)"/>
      <use xlink:href="#DejaVuSerif-72" transform="translate(67.285156 0.015625)"/>
      <use xlink:href="#DejaVuSerif-6f" transform="translate(115.087891 0.015625)"/>
      <use xlink:href="#DejaVuSerif-62" transform="translate(175.292969 0.015625)"/>
      <use xlink:href="#DejaVuSerif-61" transform="translate(239.306641 0.015625)"/>
      <use xlink:href="#DejaVuSerif-62" transform="translate(298.925781 0.015625)"/>
      <use xlink:href="#DejaVuSerif-69" transform="translate(362.939453 0.015625)"/>
      <use xlink:href="#DejaVuSerif-6c" transform="translate(394.921875 0.015625)"/>
      <use xlink:href="#DejaVuSerif-69" transform="translate(426.904297 0.015625)"/>
      <use xlink:href="#DejaVuSerif-74" transform="translate(458.886719 0.015625)"/>
      <use xlink:href="#DejaVuSerif-79" transform="translate(499.072266 0.015625)"/>
      <use xlink:href="#DejaVuSerif-20" transform="translate(555.566406 0.015625)"/>
      <use xlink:href="#DejaVuSans-Oblique-50" transform="translate(587.353516 0.015625)"/>
      <use xlink:href="#DejaVuSans-28" transform="translate(647.65625 0.015625)"/>
      <use xlink:href="#DejaVuSans-Oblique-6b" transform="translate(686.669922 0.015625)"/>
      <use xlink:href="#DejaVuSans-29" transform="translate(744.580078 0.015625)"/>
     </g>
    </g>
   </g>
   <g id="line2d_151">
    <path d="M 63.31 27.634943 
L 471.737591 333.110294 
L 471.737591 333.110294 
" clip-path="url(#pb7217f5335)" style="fill: none; stroke: #000000; stroke-width: 2.2; stroke-linecap: square"/>
   </g>
   <g id="line2d_152">
    <path d="M 63.31 40.937961 
L 86.227781 40.283212 
L 105.871593 39.502759 
L 123.059928 38.603839 
L 138.611279 37.57806 
L 153.344138 36.391475 
L 168.076997 34.979497 
L 183.628348 33.253501 
L 207.364621 30.339892 
L 220.460496 28.846034 
L 228.645418 28.116247 
L 235.193355 27.740594 
L 240.9228 27.635493 
L 245.833753 27.769199 
L 249.926214 28.081374 
L 254.018675 28.617688 
L 257.292643 29.238793 
L 260.566612 30.059729 
L 263.840581 31.111133 
L 267.114549 32.427645 
L 270.388518 34.048393 
L 272.843995 35.489976 
L 275.299471 37.148118 
L 277.754948 39.045462 
L 280.210424 41.206779 
L 282.665901 43.659155 
L 285.121377 46.432204 
L 287.576854 49.55829 
L 290.03233 53.072772 
L 292.487807 57.014279 
L 294.943283 61.424994 
L 297.39876 66.350974 
L 299.854236 71.842496 
L 302.309713 77.95443 
L 304.765189 84.746649 
L 307.220666 92.284469 
L 309.676142 100.639138 
L 312.131619 109.888354 
L 314.587095 120.116842 
L 317.042572 131.416969 
L 319.498048 143.889426 
L 321.953525 157.643954 
L 324.409001 172.80015 
L 326.864478 189.48833 
L 329.319954 207.850475 
L 331.775431 228.041258 
L 334.230907 250.229158 
L 336.686384 274.597672 
L 339.14186 301.346638 
L 341.597337 330.693668 
L 344.052813 362.875702 
L 346.50829 398.15071 
L 347.684178 416.267937 
L 347.684178 416.267937 
" clip-path="url(#pb7217f5335)" style="fill: none; stroke-dasharray: 6.66,2.88; stroke-dashoffset: 0; stroke: #555555; stroke-width: 1.8"/>
   </g>
   <g id="patch_3">
    <path d="M 63.31 367.052 
L 63.31 7.2 
" style="fill: none; stroke: #222222; stroke-width: 1.2; stroke-linejoin: miter; stroke-linecap: square"/>
   </g>
   <g id="patch_4">
    <path d="M 63.31 367.052 
L 471.737591 367.052 
" style="fill: none; stroke: #222222; stroke-width: 1.2; stroke-linejoin: miter; stroke-linecap: square"/>
   </g>
   <g id="text_13">
    <!-- Long tail -->
    <g style="fill: #333333" transform="translate(405.971949 190.415291) scale(0.11 -0.11)">
     <defs>
      <path id="DejaVuSerif-Italic-4c" d="M -97 0 
L -34 331 
L 559 331 
L 1338 4331 
L 744 4331 
L 809 4666 
L 2631 4666 
L 2566 4331 
L 1972 4331 
L 1206 384 
L 3338 384 
L 3488 1166 
L 3872 1166 
L 3647 0 
L -97 0 
z
" transform="scale(0.015625)"/>
      <path id="DejaVuSerif-Italic-6f" d="M 1644 219 
Q 2106 219 2414 584 
Q 2722 950 2859 1663 
Q 2922 1988 2922 2241 
Q 2922 2541 2834 2738 
Q 2669 3103 2206 3103 
Q 1744 3103 1436 2739 
Q 1128 2375 991 1663 
Q 928 1338 928 1088 
Q 928 784 1019 584 
Q 1184 219 1644 219 
z
M 1584 -91 
Q 859 -91 513 388 
Q 272 722 272 1203 
Q 272 1419 319 1663 
Q 472 2456 1005 2934 
Q 1538 3413 2266 3413 
Q 2994 3413 3341 2934 
Q 3578 2603 3578 2122 
Q 3578 1906 3531 1663 
Q 3378 869 2845 389 
Q 2313 -91 1584 -91 
z
" transform="scale(0.015625)"/>
      <path id="DejaVuSerif-Italic-6e" d="M 450 0 
L 1031 2988 
L 481 2988 
L 544 3322 
L 1669 3322 
L 1556 2731 
Q 1781 3069 2068 3241 
Q 2356 3413 2694 3413 
Q 3244 3413 3444 3097 
Q 3563 2906 3563 2588 
Q 3563 2378 3509 2113 
L 3163 331 
L 3675 331 
L 3613 0 
L 2522 0 
L 2897 1931 
Q 2959 2253 2959 2469 
Q 2959 2659 2909 2769 
Q 2803 2994 2425 2994 
Q 2025 2994 1759 2701 
Q 1494 2409 1384 1850 
L 1025 0 
L 450 0 
z
" transform="scale(0.015625)"/>
      <path id="DejaVuSerif-Italic-67" d="M 3822 3322 
L 3188 72 
Q 3044 -672 2581 -1031 
Q 2078 -1422 1381 -1422 
Q 1053 -1422 765 -1362 
Q 478 -1303 225 -1184 
L 363 -488 
L 663 -488 
Q 653 -813 834 -963 
Q 1016 -1113 1406 -1113 
Q 1913 -1113 2203 -825 
Q 2494 -544 2613 72 
L 2700 519 
Q 2472 206 2181 57 
Q 1891 -91 1525 -91 
Q 975 -91 697 281 
Q 522 516 503 841 
Q 491 1031 534 1256 
Q 750 2359 1516 2928 
Q 2169 3409 2931 3413 
Q 3631 3416 3822 3322 
z
M 3184 2988 
Q 3181 3094 2844 3094 
Q 2234 3094 1775 2625 
Q 1316 2153 1147 1297 
Q 1100 1044 1113 853 
Q 1125 659 1203 528 
Q 1356 269 1756 269 
Q 2194 269 2484 583 
Q 2775 897 2891 1497 
L 2953 1825 
L 3184 2988 
z
" transform="scale(0.015625)"/>
      <path id="DejaVuSerif-Italic-20" transform="scale(0.015625)"/>
      <path id="DejaVuSerif-Italic-74" d="M 856 2988 
L 350 2988 
L 416 3322 
L 922 3322 
L 1122 4353 
L 1700 4353 
L 1500 3322 
L 2581 3322 
L 2516 2988 
L 1434 2988 
L 1025 878 
Q 978 631 978 488 
Q 978 388 1000 338 
Q 1059 219 1278 219 
Q 1503 219 1633 351 
Q 1763 484 1825 781 
L 2259 781 
Q 2147 328 1884 118 
Q 1622 -91 1169 -91 
Q 672 -91 506 131 
Q 406 266 406 516 
Q 406 675 447 878 
L 856 2988 
z
" transform="scale(0.015625)"/>
      <path id="DejaVuSerif-Italic-61" d="M 2325 519 
Q 1909 -91 1238 -91 
Q 688 -91 409 281 
Q 216 544 216 919 
Q 216 1078 250 1256 
Q 463 2359 1231 2928 
Q 1884 3413 2675 3413 
Q 3206 3413 3388 3322 
L 2806 331 
L 3300 331 
L 3238 0 
L 2225 0 
L 2325 519 
z
M 822 938 
Q 822 269 1469 269 
Q 1863 269 2130 583 
Q 2397 897 2516 1497 
L 2806 3003 
L 2806 3003 
Q 2806 3094 2556 3094 
Q 1956 3094 1491 2625 
Q 1028 2153 863 1297 
Q 822 1097 822 938 
z
" transform="scale(0.015625)"/>
      <path id="DejaVuSerif-Italic-69" d="M 1009 4353 
Q 1038 4497 1163 4603 
Q 1288 4709 1434 4709 
Q 1578 4709 1663 4603 
Q 1728 4522 1728 4422 
Q 1728 4388 1719 4353 
Q 1691 4206 1567 4103 
Q 1444 4000 1297 4000 
Q 1150 4000 1066 4103 
Q 1003 4181 1003 4281 
Q 1003 4316 1009 4353 
z
M 963 331 
L 1506 331 
L 1444 0 
L 325 0 
L 903 2988 
L 353 2988 
L 419 3322 
L 1544 3322 
L 963 331 
z
" transform="scale(0.015625)"/>
      <path id="DejaVuSerif-Italic-6c" d="M 903 331 
L 1447 331 
L 1384 0 
L 266 0 
L 1147 4531 
L 594 4531 
L 656 4863 
L 1784 4863 
L 903 331 
z
" transform="scale(0.015625)"/>
     </defs>
     <use xlink:href="#DejaVuSerif-Italic-4c"/>
     <use xlink:href="#DejaVuSerif-Italic-6f" transform="translate(66.40625 0)"/>
     <use xlink:href="#DejaVuSerif-Italic-6e" transform="translate(126.611328 0)"/>
     <use xlink:href="#DejaVuSerif-Italic-67" transform="translate(191.015625 0)"/>
     <use xlink:href="#DejaVuSerif-Italic-20" transform="translate(255.029297 0)"/>
     <use xlink:href="#DejaVuSerif-Italic-74" transform="translate(286.816406 0)"/>
     <use xlink:href="#DejaVuSerif-Italic-61" transform="translate(327.001953 0)"/>
     <use xlink:href="#DejaVuSerif-Italic-69" transform="translate(386.621094 0)"/>
     <use xlink:href="#DejaVuSerif-Italic-6c" transform="translate(418.603516 0)"/>
    </g>
   </g>
   <g id="patch_5">
    <path d="M 430.754606 212.850823 
Q 430.754606 231.286694 430.754606 248.604531 
" style="fill: none; stroke: #555555; stroke-linecap: round"/>
    <path d="M 433.154606 243.804531 
L 430.754606 248.604531 
L 428.354606 243.804531 
" style="fill: none; stroke: #555555; stroke-linecap: round"/>
   </g>
   <g id="legend_1">
    <g id="patch_6">
     <path d="M 323.737591 44.55625 
L 466.737591 44.55625 
L 466.737591 12.2 
L 323.737591 12.2 
z
" style="fill: #ffffff; opacity: 0.95; stroke: #cccccc; stroke-linejoin: miter"/>
    </g>
    <g id="line2d_153">
     <path d="M 327.737591 20.298437 
L 337.737591 20.298437 
L 347.737591 20.298437 
" style="fill: none; stroke: #000000; stroke-width: 2.2; stroke-linecap: square"/>
    </g>
    <g id="text_14">
     <!-- Power law: $P(k) \propto k^{-\gamma}$ -->
     <g transform="translate(355.737591 23.798437) scale(0.1 -0.1)">
      <defs>
       <path id="DejaVuSerif-77" d="M 3072 3322 
L 3922 728 
L 4672 2988 
L 4191 2988 
L 4191 3322 
L 5394 3322 
L 5394 2988 
L 5025 2988 
L 4038 0 
L 3559 0 
L 2741 2484 
L 1919 0 
L 1459 0 
L 475 2988 
L 103 2988 
L 103 3322 
L 1606 3322 
L 1606 2988 
L 1069 2988 
L 1813 728 
L 2669 3322 
L 3072 3322 
z
" transform="scale(0.015625)"/>
       <path id="DejaVuSerif-3a" d="M 666 325 
Q 666 500 786 622 
Q 906 744 1081 744 
Q 1256 744 1376 622 
Q 1497 500 1497 325 
Q 1497 150 1378 29 
Q 1259 -91 1081 -91 
Q 903 -91 784 29 
Q 666 150 666 325 
z
M 666 2363 
Q 666 2538 786 2658 
Q 906 2778 1081 2778 
Q 1259 2778 1378 2659 
Q 1497 2541 1497 2363 
Q 1497 2184 1378 2065 
Q 1259 1947 1081 1947 
Q 906 1947 786 2067 
Q 666 2188 666 2363 
z
" transform="scale(0.015625)"/>
       <path id="DejaVuSans-221d" d="M 1647 1134 
Q 2163 1134 2472 1884 
Q 2075 2703 1647 2703 
Q 1334 2703 1175 2478 
Q 1006 2238 1006 1919 
Q 1006 1569 1175 1353 
Q 1350 1134 1647 1134 
z
M 3884 1128 
L 3884 716 
L 3644 716 
Q 3416 716 3247 809 
Q 3078 894 2916 1091 
Q 2819 1203 2666 1466 
Q 2456 1091 2272 925 
Q 2044 725 1681 725 
Q 1259 725 981 1041 
Q 688 1372 688 1919 
Q 688 2444 981 2800 
Q 1241 3116 1688 3116 
Q 1916 3116 2084 3022 
Q 2281 2919 2416 2741 
Q 2541 2581 2666 2366 
Q 2875 2741 3059 2906 
Q 3288 3106 3650 3106 
L 3884 3106 
L 3884 2697 
L 3684 2697 
Q 3222 2697 2859 1947 
Q 3256 1128 3684 1128 
L 3884 1128 
z
" transform="scale(0.015625)"/>
       <path id="DejaVuSans-2212" d="M 678 2272 
L 4684 2272 
L 4684 1741 
L 678 1741 
L 678 2272 
z
" transform="scale(0.015625)"/>
       <path id="DejaVuSans-Oblique-3b3" d="M 1491 2950 
L 1838 788 
L 3456 3500 
L 4066 3500 
L 1972 0 
L 1713 -1331 
L 1138 -1331 
L 1397 0 
L 988 2613 
Q 925 3006 628 3006 
L 475 3006 
L 569 3500 
L 788 3500 
Q 1403 3500 1491 2950 
z
" transform="scale(0.015625)"/>
      </defs>
      <use xlink:href="#DejaVuSerif-50" transform="translate(0 0.4375)"/>
      <use xlink:href="#DejaVuSerif-6f" transform="translate(67.285156 0.4375)"/>
      <use xlink:href="#DejaVuSerif-77" transform="translate(127.490234 0.4375)"/>
      <use xlink:href="#DejaVuSerif-65" transform="translate(213.085938 0.4375)"/>
      <use xlink:href="#DejaVuSerif-72" transform="translate(272.265625 0.4375)"/>
      <use xlink:href="#DejaVuSerif-20" transform="translate(320.068359 0.4375)"/>
      <use xlink:href="#DejaVuSerif-6c" transform="translate(351.855469 0.4375)"/>
      <use xlink:href="#DejaVuSerif-61" transform="translate(383.837891 0.4375)"/>
      <use xlink:href="#DejaVuSerif-77" transform="translate(443.457031 0.4375)"/>
      <use xlink:href="#DejaVuSerif-3a" transform="translate(529.052734 0.4375)"/>
      <use xlink:href="#DejaVuSerif-20" transform="translate(562.744141 0.4375)"/>
      <use xlink:href="#DejaVuSans-Oblique-50" transform="translate(594.53125 0.4375)"/>
      <use xlink:href="#DejaVuSans-28" transform="translate(654.833984 0.4375)"/>
      <use xlink:href="#DejaVuSans-Oblique-6b" transform="translate(693.847656 0.4375)"/>
      <use xlink:href="#DejaVuSans-29" transform="translate(751.757812 0.4375)"/>
      <use xlink:href="#DejaVuSans-221d" transform="translate(810.253906 0.4375)"/>
      <use xlink:href="#DejaVuSans-Oblique-6b" transform="translate(901.171875 0.4375)"/>
      <use xlink:href="#DejaVuSans-2212" transform="translate(966.52974 38.71875) scale(0.7)"/>
      <use xlink:href="#DejaVuSans-Oblique-3b3" transform="translate(1025.182083 38.71875) scale(0.7)"/>
     </g>
    </g>
    <g id="line2d_154">
     <path d="M 327.737591 34.976562 
L 337.737591 34.976562 
L 347.737591 34.976562 
" style="fill: none; stroke-dasharray: 6.66,2.88; stroke-dashoffset: 0; stroke: #555555; stroke-width: 1.8"/>
    </g>
    <g id="text_15">
     <!-- Normal distribution -->
     <g transform="translate(355.737591 38.476562) scale(0.1 -0.1)">
      <defs>
       <path id="DejaVuSerif-6d" d="M 3316 2675 
Q 3481 3041 3739 3227 
Q 3997 3413 4341 3413 
Q 4863 3413 5119 3089 
Q 5375 2766 5375 2113 
L 5375 331 
L 5894 331 
L 5894 0 
L 4300 0 
L 4300 331 
L 4800 331 
L 4800 2047 
Q 4800 2556 4650 2772 
Q 4500 2988 4153 2988 
Q 3769 2988 3567 2697 
Q 3366 2406 3366 1850 
L 3366 331 
L 3866 331 
L 3866 0 
L 2291 0 
L 2291 331 
L 2791 331 
L 2791 2069 
Q 2791 2566 2641 2777 
Q 2491 2988 2144 2988 
Q 1759 2988 1557 2697 
Q 1356 2406 1356 1850 
L 1356 331 
L 1856 331 
L 1856 0 
L 263 0 
L 263 331 
L 781 331 
L 781 2994 
L 231 2994 
L 231 3322 
L 1356 3322 
L 1356 2731 
Q 1516 3063 1762 3238 
Q 2009 3413 2322 3413 
Q 2709 3413 2968 3220 
Q 3228 3028 3316 2675 
z
" transform="scale(0.015625)"/>
       <path id="DejaVuSerif-73" d="M 359 184 
L 359 959 
L 691 959 
Q 703 588 923 403 
Q 1144 219 1575 219 
Q 1963 219 2166 364 
Q 2369 509 2369 788 
Q 2369 1006 2220 1140 
Q 2072 1275 1594 1428 
L 1178 1569 
Q 750 1706 558 1912 
Q 366 2119 366 2438 
Q 366 2894 700 3153 
Q 1034 3413 1625 3413 
Q 1888 3413 2178 3344 
Q 2469 3275 2778 3144 
L 2778 2419 
L 2447 2419 
Q 2434 2741 2221 2922 
Q 2009 3103 1644 3103 
Q 1281 3103 1095 2975 
Q 909 2847 909 2591 
Q 909 2381 1050 2254 
Q 1191 2128 1613 1997 
L 2069 1856 
Q 2541 1709 2748 1489 
Q 2956 1269 2956 922 
Q 2956 450 2595 179 
Q 2234 -91 1600 -91 
Q 1278 -91 972 -22 
Q 666 47 359 184 
z
" transform="scale(0.015625)"/>
       <path id="DejaVuSerif-75" d="M 2266 3322 
L 3341 3322 
L 3341 331 
L 3884 331 
L 3884 0 
L 2766 0 
L 2766 588 
Q 2606 256 2353 82 
Q 2100 -91 1766 -91 
Q 1213 -91 952 223 
Q 691 538 691 1209 
L 691 2988 
L 172 2988 
L 172 3322 
L 1269 3322 
L 1269 1388 
Q 1269 781 1417 556 
Q 1566 331 1947 331 
Q 2347 331 2556 625 
Q 2766 919 2766 1478 
L 2766 2988 
L 2266 2988 
L 2266 3322 
z
" transform="scale(0.015625)"/>
       <path id="DejaVuSerif-6e" d="M 263 0 
L 263 331 
L 781 331 
L 781 2988 
L 231 2988 
L 231 3322 
L 1356 3322 
L 1356 2731 
Q 1516 3069 1770 3241 
Q 2025 3413 2363 3413 
Q 2913 3413 3172 3097 
Q 3431 2781 3431 2113 
L 3431 331 
L 3944 331 
L 3944 0 
L 2356 0 
L 2356 331 
L 2853 331 
L 2853 1931 
Q 2853 2541 2703 2767 
Q 2553 2994 2175 2994 
Q 1775 2994 1565 2701 
Q 1356 2409 1356 1850 
L 1356 331 
L 1856 331 
L 1856 0 
L 263 0 
z
" transform="scale(0.015625)"/>
      </defs>
      <use xlink:href="#DejaVuSerif-4e"/>
      <use xlink:href="#DejaVuSerif-6f" transform="translate(87.5 0)"/>
      <use xlink:href="#DejaVuSerif-72" transform="translate(147.705078 0)"/>
      <use xlink:href="#DejaVuSerif-6d" transform="translate(195.507812 0)"/>
      <use xlink:href="#DejaVuSerif-61" transform="translate(290.332031 0)"/>
      <use xlink:href="#DejaVuSerif-6c" transform="translate(349.951172 0)"/>
      <use xlink:href="#DejaVuSerif-20" transform="translate(381.933594 0)"/>
      <use xlink:href="#DejaVuSerif-64" transform="translate(413.720703 0)"/>
      <use xlink:href="#DejaVuSerif-69" transform="translate(477.734375 0)"/>
      <use xlink:href="#DejaVuSerif-73" transform="translate(509.716797 0)"/>
      <use xlink:href="#DejaVuSerif-74" transform="translate(561.035156 0)"/>
      <use xlink:href="#DejaVuSerif-72" transform="translate(601.220703 0)"/>
      <use xlink:href="#DejaVuSerif-69" transform="translate(649.023438 0)"/>
      <use xlink:href="#DejaVuSerif-62" transform="translate(681.005859 0)"/>
      <use xlink:href="#DejaVuSerif-75" transform="translate(745.019531 0)"/>
      <use xlink:href="#DejaVuSerif-74" transform="translate(809.423828 0)"/>
      <use xlink:href="#DejaVuSerif-69" transform="translate(849.609375 0)"/>
      <use xlink:href="#DejaVuSerif-6f" transform="translate(881.591797 0)"/>
      <use xlink:href="#DejaVuSerif-6e" transform="translate(941.796875 0)"/>
     </g>
    </g>
   </g>
  </g>
 </g>
 <defs>
  <clipPath id="pb7217f5335">
   <rect x="63.31" y="7.2" width="408.427591" height="359.852"/>
  </clipPath>
 </defs>
</svg>
